font.ufo
<glyph name="ampersand" format="2">
	<unicode hex="0026"/>
	<advance width="668"/>
	<outline>
		<contour>
			<point x="240" y="-12" type="curve" smooth="yes"/>
			<point x="338" y="-12"/>
			<point x="401" y="37"/>
			<point x="452" y="104" type="curve"/>
			<point x="445" y="109" type="line"/>
			<point x="441" y="112" type="line"/>
			<point x="384" y="41"/>
			<point x="324" y="6"/>
			<point x="240" y="6" type="curve" smooth="yes"/>
			<point x="139" y="6"/>
			<point x="74" y="92"/>
			<point x="74" y="172" type="curve" smooth="yes"/>
			<point x="74" y="256"/>
			<point x="112" y="318"/>
			<point x="220" y="384" type="curve"/>
			<point x="216" y="388" type="line"/>
			<point x="212" y="391" type="line"/>
			<point x="97" y="326"/>
			<point x="48" y="260"/>
			<point x="48" y="172" type="curve" smooth="yes"/>
			<point x="48" y="70"/>
			<point x="123" y="-12"/>
		</contour>
		<contour>
			<point x="456" y="108" type="line"/>
			<point x="528" y="209"/>
			<point x="543" y="284"/>
			<point x="561" y="420" type="curve"/>
			<point x="540" y="420" type="line"/>
			<point x="526" y="285"/>
			<point x="512" y="218"/>
			<point x="448" y="120" type="curve"/>
			<point x="445" y="120" type="line"/>
		</contour>
		<contour>
			<point x="544" y="404" type="line"/>
			<point x="556" y="404" type="line"/>
			<point x="628" y="410" type="line"/>
			<point x="628" y="420" type="line"/>
			<point x="456" y="420" type="line"/>
			<point x="456" y="410" type="line"/>
		</contour>
		<contour>
			<point x="584" y="-4" type="curve" smooth="yes"/>
			<point x="601" y="-4"/>
			<point x="618" y="-3"/>
			<point x="632" y="0" type="curve"/>
			<point x="632" y="10" type="line"/>
			<point x="524" y="16" type="line"/>
			<point x="556" y="8" type="line"/>
			<point x="443" y="137"/>
			<point x="375" y="214"/>
			<point x="312" y="288" type="curve" smooth="yes"/>
			<point x="273" y="333"/>
			<point x="242" y="369"/>
			<point x="192" y="431" type="curve" smooth="yes"/>
			<point x="148" y="485"/>
			<point x="139" y="515"/>
			<point x="139" y="556" type="curve" smooth="yes"/>
			<point x="139" y="629"/>
			<point x="189" y="675"/>
			<point x="248" y="675" type="curve" smooth="yes"/>
			<point x="309" y="675"/>
			<point x="349" y="626"/>
			<point x="349" y="560" type="curve" smooth="yes"/>
			<point x="349" y="493"/>
			<point x="298" y="445"/>
			<point x="216" y="392" type="curve"/>
			<point x="220" y="388" type="line"/>
			<point x="224" y="384" type="line"/>
			<point x="309" y="435"/>
			<point x="372" y="488"/>
			<point x="372" y="560" type="curve" smooth="yes"/>
			<point x="372" y="628"/>
			<point x="330" y="688"/>
			<point x="248" y="688" type="curve" smooth="yes"/>
			<point x="174" y="688"/>
			<point x="116" y="632"/>
			<point x="116" y="556" type="curve" smooth="yes"/>
			<point x="116" y="507"/>
			<point x="136" y="463"/>
			<point x="176" y="416" type="curve" smooth="yes"/>
			<point x="238" y="342"/>
			<point x="255" y="322"/>
			<point x="296" y="272" type="curve" smooth="yes"/>
			<point x="364" y="191"/>
			<point x="429" y="116"/>
			<point x="508" y="20" type="curve" smooth="yes"/>
			<point x="524" y="0"/>
			<point x="547" y="-4"/>
		</contour>
	</outline>
</glyph>
<glyph name="comma" format="2">
	<unicode hex="002C"/>
	<advance width="272"/>
	<outline>
		<contour>
			<point x="164" y="-6" type="curve" smooth="yes"/>
			<point x="164" y="16"/>
			<point x="164" y="24"/>
			<point x="159" y="38" type="curve"/>
			<point x="152" y="45"/>
			<point x="147" y="48"/>
			<point x="135" y="48" type="curve" smooth="yes"/>
			<point x="119" y="48"/>
			<point x="110" y="36"/>
			<point x="110" y="22" type="curve" smooth="yes"/>
			<point x="110" y="10"/>
			<point x="118" y="1"/>
			<point x="130" y="-9" type="curve" smooth="yes"/>
			<point x="157" y="-30" type="line"/>
			<point x="151" y="-10" type="line"/>
			<point x="147" y="-53"/>
			<point x="120" y="-85"/>
			<point x="69" y="-115" type="curve"/>
			<point x="74" y="-124" type="line"/>
			<point x="130" y="-97"/>
			<point x="164" y="-51"/>
		</contour>
	</outline>
</glyph>
<glyph name="hyphen" format="2">
	<unicode hex="002D"/>
	<unicode hex="00AD"/>
	<unicode hex="2010"/>
	<advance width="288"/>
	<outline>
		<contour>
			<point x="36" y="218" type="line"/>
			<point x="252" y="218" type="line"/>
			<point x="252" y="236" type="line"/>
			<point x="36" y="236" type="line"/>
		</contour>
	</outline>
</glyph>
<glyph name="one" format="2">
	<unicode hex="0031"/>
	<advance width="460"/>
	<outline>
		<contour>
			<point x="80" y="0" type="line"/>
			<point x="400" y="0" type="line"/>
			<point x="400" y="10" type="line"/>
			<point x="250" y="18" type="line"/>
			<point x="238" y="18" type="line"/>
			<point x="80" y="10" type="line"/>
		</contour>
		<contour>
			<point x="230" y="0" type="curve"/>
			<point x="258" y="0" type="line"/>
			<point x="256" y="88"/>
			<point x="256" y="160"/>
			<point x="256" y="268" type="curve" smooth="yes"/>
			<point x="256" y="392" type="line"/>
			<point x="258" y="660" type="line"/>
			<point x="252" y="664" type="line"/>
			<point x="84" y="615" type="line"/>
			<point x="84" y="605" type="line"/>
			<point x="232" y="635" type="line"/>
			<point x="232" y="268" type="line" smooth="yes"/>
			<point x="232" y="160"/>
			<point x="232" y="88"/>
		</contour>
	</outline>
</glyph>
<glyph name="one.sups" format="2">
	<unicode hex="00B9"/>
	<advance width="310"/>
	<outline>
		<contour>
			<point x="52" y="436" type="line"/>
			<point x="271" y="436" type="line"/>
			<point x="271" y="443" type="line"/>
			<point x="168" y="449" type="line"/>
			<point x="159" y="449" type="line"/>
			<point x="52" y="443" type="line"/>
		</contour>
		<contour>
			<point x="152" y="436" type="line"/>
			<point x="175" y="436" type="line"/>
			<point x="175" y="844" type="line"/>
			<point x="170" y="847" type="line"/>
			<point x="56" y="815" type="line"/>
			<point x="56" y="809" type="line"/>
			<point x="152" y="825" type="line"/>
		</contour>
	</outline>
</glyph>
<glyph name="lslash" format="2">
	<unicode hex="0142"/>
	<advance width="264"/>
	<outline>
		<contour>
			<point x="136" y="388" type="line"/>
			<point x="40" y="332" type="line"/>
			<point x="40" y="318" type="line"/>
			<point x="136" y="374" type="line"/>
		</contour>
		<contour>
			<point x="232" y="442" type="line"/>
			<point x="136" y="386" type="line"/>
			<point x="136" y="372" type="line"/>
			<point x="232" y="428" type="line"/>
		</contour>
		<component base="l"/>
	</outline>
</glyph>
<glyph name="OE" format="2">
	<unicode hex="0152"/>
	<advance width="842"/>
	<outline>
		<contour>
			<point x="88" y="337" type="curve" smooth="yes"/>
			<point x="88" y="542"/>
			<point x="187" y="675"/>
			<point x="350" y="675" type="curve" smooth="yes"/>
			<point x="391" y="675"/>
			<point x="423" y="671"/>
			<point x="454" y="659" type="curve"/>
			<point x="454" y="673" type="line"/>
			<point x="424" y="683"/>
			<point x="391" y="688"/>
			<point x="350" y="688" type="curve" smooth="yes"/>
			<point x="175" y="688"/>
			<point x="60" y="548"/>
			<point x="60" y="338" type="curve" smooth="yes"/>
			<point x="60" y="129"/>
			<point x="169" y="-12"/>
			<point x="344" y="-12" type="curve" smooth="yes"/>
			<point x="382" y="-12"/>
			<point x="416" y="-9"/>
			<point x="450" y="2" type="curve"/>
			<point x="450" y="16" type="line"/>
			<point x="416" y="5"/>
			<point x="381" y="1"/>
			<point x="344" y="1" type="curve" smooth="yes"/>
			<point x="194" y="1"/>
			<point x="88" y="130"/>
		</contour>
		<contour>
			<point x="442" y="0" type="curve"/>
			<point x="472" y="0" type="line"/>
			<point x="470" y="88"/>
			<point x="470" y="216"/>
			<point x="470" y="324" type="curve" smooth="yes"/>
			<point x="470" y="360" type="line" smooth="yes"/>
			<point x="470" y="464"/>
			<point x="470" y="590"/>
			<point x="472" y="676" type="curve"/>
			<point x="442" y="676" type="line"/>
			<point x="444" y="590"/>
			<point x="444" y="464"/>
			<point x="444" y="360" type="curve" smooth="yes"/>
			<point x="444" y="324" type="line" smooth="yes"/>
			<point x="444" y="216"/>
			<point x="444" y="88"/>
		</contour>
		<contour>
			<point x="654" y="237" type="line"/>
			<point x="664" y="237" type="line"/>
			<point x="664" y="453" type="line"/>
			<point x="654" y="453" type="line"/>
			<point x="641" y="349" type="line"/>
			<point x="641" y="341" type="line"/>
		</contour>
		<contour>
			<point x="457" y="338" type="line"/>
			<point x="655" y="338" type="line"/>
			<point x="655" y="352" type="line"/>
			<point x="457" y="352" type="line"/>
		</contour>
		<contour>
			<point x="776" y="512" type="line"/>
			<point x="786" y="512" type="line"/>
			<point x="775" y="676" type="line"/>
			<point x="457" y="676" type="line"/>
			<point x="457" y="662" type="line"/>
			<point x="751" y="662" type="line"/>
		</contour>
		<contour>
			<point x="788" y="172" type="line"/>
			<point x="763" y="14" type="line"/>
			<point x="457" y="14" type="line"/>
			<point x="457" y="0" type="line"/>
			<point x="787" y="0" type="line"/>
			<point x="798" y="172" type="line"/>
		</contour>
	</outline>
	<anchor name="aboveUC" x="457" y="696"/>
</glyph>
<glyph name="y.sups" format="2">
	<unicode hex="02B8"/>
	<advance width="320"/>
	<outline>
		<contour>
			<point x="46" y="272" type="curve" smooth="yes"/>
			<point x="91" y="272"/>
			<point x="125" y="320"/>
			<point x="154" y="396" type="curve" smooth="yes"/>
			<point x="278" y="715" type="line"/>
			<point x="265" y="715" type="line"/>
			<point x="164" y="451" type="line"/>
			<point x="142" y="398" type="line" smooth="yes"/>
			<point x="115" y="328"/>
			<point x="87" y="287"/>
			<point x="50" y="283" type="curve"/>
			<point x="62" y="281" type="line"/>
			<point x="72" y="283" type="line"/>
			<point x="59" y="292" type="line" smooth="yes"/>
			<point x="48" y="299"/>
			<point x="36" y="304"/>
			<point x="26" y="304" type="curve" smooth="yes"/>
			<point x="12" y="304"/>
			<point x="5" y="299"/>
			<point x="4" y="290" type="curve"/>
			<point x="9" y="278"/>
			<point x="27" y="272"/>
		</contour>
		<contour>
			<point x="7" y="708" type="line"/>
			<point x="60" y="703" type="line"/>
			<point x="64" y="703" type="line"/>
			<point x="129" y="708" type="line"/>
			<point x="129" y="715" type="line"/>
			<point x="7" y="715" type="line"/>
		</contour>
		<contour>
			<point x="207" y="708" type="line"/>
			<point x="266" y="704" type="line"/>
			<point x="270" y="704" type="line"/>
			<point x="315" y="708" type="line"/>
			<point x="315" y="715" type="line"/>
			<point x="207" y="715" type="line"/>
		</contour>
		<contour>
			<point x="159" y="434" type="line"/>
			<point x="165" y="443" type="line"/>
			<point x="173" y="455" type="line"/>
			<point x="70" y="715" type="line"/>
			<point x="43" y="715" type="line"/>
		</contour>
	</outline>
</glyph>
<glyph name="x.sups" format="2">
	<unicode hex="02E3"/>
	<advance width="304"/>
	<outline>
		<contour>
			<point x="7" y="436" type="line"/>
			<point x="106" y="436" type="line"/>
			<point x="106" y="443" type="line"/>
			<point x="58" y="447" type="line"/>
			<point x="54" y="447" type="line"/>
			<point x="7" y="443" type="line"/>
		</contour>
		<contour>
			<point x="10" y="708" type="line"/>
			<point x="64" y="703" type="line"/>
			<point x="68" y="703" type="line"/>
			<point x="123" y="708" type="line"/>
			<point x="123" y="715" type="line"/>
			<point x="10" y="715" type="line"/>
		</contour>
		<contour>
			<point x="239" y="436" type="line"/>
			<point x="267" y="436" type="line"/>
			<point x="161" y="583" type="line"/>
			<point x="68" y="715" type="line"/>
			<point x="40" y="715" type="line"/>
			<point x="144" y="571" type="line"/>
		</contour>
		<contour>
			<point x="185" y="436" type="line"/>
			<point x="297" y="436" type="line"/>
			<point x="297" y="443" type="line"/>
			<point x="243" y="448" type="line"/>
			<point x="238" y="448" type="line"/>
			<point x="185" y="443" type="line"/>
		</contour>
		<contour>
			<point x="195" y="708" type="line"/>
			<point x="244" y="704" type="line"/>
			<point x="248" y="704" type="line"/>
			<point x="293" y="708" type="line"/>
			<point x="293" y="715" type="line"/>
			<point x="195" y="715" type="line"/>
		</contour>
		<contour>
			<point x="40" y="436" type="line"/>
			<point x="54" y="436" type="line"/>
			<point x="154" y="574" type="line"/>
			<point x="147" y="581" type="line"/>
		</contour>
		<contour>
			<point x="154" y="570" type="line"/>
			<point x="262" y="715" type="line"/>
			<point x="248" y="715" type="line"/>
			<point x="148" y="578" type="line"/>
		</contour>
	</outline>
</glyph>
<glyph name="pi" format="2">
	<unicode hex="03C0"/>
	<advance width="528"/>
	<outline>
		<contour>
			<point x="70" y="-8" type="curve" smooth="yes"/>
			<point x="107" y="-8"/>
			<point x="126" y="10"/>
			<point x="132" y="48" type="curve" smooth="yes"/>
			<point x="152" y="171"/>
			<point x="163" y="306"/>
			<point x="164" y="436" type="curve"/>
			<point x="148" y="436" type="line"/>
			<point x="148" y="306"/>
			<point x="138" y="171"/>
			<point x="111" y="20" type="curve"/>
			<point x="116" y="36" type="line"/>
			<point x="96" y="33"/>
			<point x="75" y="30"/>
			<point x="55" y="27" type="curve"/>
			<point x="50" y="22"/>
			<point x="46" y="17"/>
			<point x="46" y="9" type="curve" smooth="yes"/>
			<point x="46" y="-1"/>
			<point x="55" y="-8"/>
		</contour>
		<contour>
			<point x="16" y="416" type="line"/>
			<point x="160" y="428" type="line"/>
			<point x="360" y="428" type="line"/>
			<point x="512" y="424" type="line"/>
			<point x="508" y="448" type="line"/>
			<point x="184" y="448" type="line" smooth="yes"/>
			<point x="114" y="448"/>
			<point x="68" y="436"/>
			<point x="16" y="424" type="curve"/>
		</contour>
		<contour>
			<point x="423" y="-12" type="curve" smooth="yes"/>
			<point x="446" y="-12"/>
			<point x="468" y="1"/>
			<point x="483" y="24" type="curve"/>
			<point x="478" y="29" type="line"/>
			<point x="464" y="16"/>
			<point x="450" y="8"/>
			<point x="428" y="8" type="curve" smooth="yes"/>
			<point x="399" y="8"/>
			<point x="376" y="25"/>
			<point x="375" y="88" type="curve" smooth="yes"/>
			<point x="372" y="440" type="line"/>
			<point x="356" y="440" type="line"/>
			<point x="354" y="324"/>
			<point x="350" y="208"/>
			<point x="350" y="92" type="curve" smooth="yes"/>
			<point x="350" y="21"/>
			<point x="374" y="-12"/>
		</contour>
	</outline>
</glyph>
<glyph name="psi" format="2">
	<unicode hex="03C8"/>
	<advance width="643"/>
	<outline>
		<contour>
			<point x="317" y="-208" type="line"/>
			<point x="339" y="-200" type="line"/>
			<point x="337" y="-6" type="line"/>
			<point x="331" y="620" type="line"/>
			<point x="319" y="620" type="line"/>
			<point x="313" y="-6" type="line"/>
			<point x="311" y="-204" type="line"/>
		</contour>
		<contour>
			<point x="323" y="-12" type="curve"/>
			<point x="327" y="2" type="line"/>
			<point x="171" y="2"/>
			<point x="108" y="67"/>
			<point x="108" y="176" type="curve" smooth="yes"/>
			<point x="108" y="257"/>
			<point x="120" y="326"/>
			<point x="120" y="376" type="curve" smooth="yes"/>
			<point x="120" y="430"/>
			<point x="103" y="460"/>
			<point x="66" y="460" type="curve" smooth="yes"/>
			<point x="42" y="460"/>
			<point x="21" y="446"/>
			<point x="16" y="438" type="curve"/>
			<point x="19" y="432" type="line"/>
			<point x="25" y="435"/>
			<point x="39" y="440"/>
			<point x="52" y="440" type="curve" smooth="yes"/>
			<point x="84" y="440"/>
			<point x="95" y="419"/>
			<point x="95" y="368" type="curve" smooth="yes"/>
			<point x="95" y="318"/>
			<point x="83" y="253"/>
			<point x="83" y="172" type="curve" smooth="yes"/>
			<point x="83" y="49"/>
			<point x="171" y="-12"/>
		</contour>
		<contour>
			<point x="319" y="-12" type="line"/>
			<point x="498" y="-12"/>
			<point x="575" y="84"/>
			<point x="575" y="236" type="curve" smooth="yes"/>
			<point x="575" y="316"/>
			<point x="558" y="395"/>
			<point x="543" y="452" type="curve"/>
			<point x="539" y="457"/>
			<point x="532" y="460"/>
			<point x="525" y="460" type="curve" smooth="yes"/>
			<point x="515" y="460"/>
			<point x="507" y="452"/>
			<point x="507" y="440" type="curve" smooth="yes"/>
			<point x="507" y="416"/>
			<point x="521" y="404"/>
			<point x="559" y="324" type="curve"/>
			<point x="555" y="352" type="line"/>
			<point x="550" y="356" type="line"/>
			<point x="557" y="309"/>
			<point x="560" y="271"/>
			<point x="560" y="232" type="curve" smooth="yes"/>
			<point x="560" y="92"/>
			<point x="488" y="2"/>
			<point x="323" y="2" type="curve"/>
		</contour>
	</outline>
</glyph>
<glyph name="iotadieresis" format="2">
	<unicode hex="03CA"/>
	<advance width="219"/>
	<outline>
		<contour>
			<point x="62" y="621" type="curve" smooth="yes"/>
			<point x="76" y="621"/>
			<point x="88" y="630"/>
			<point x="88" y="647" type="curve" smooth="yes"/>
			<point x="88" y="664"/>
			<point x="76" y="673"/>
			<point x="62" y="673" type="curve" smooth="yes"/>
			<point x="48" y="673"/>
			<point x="36" y="664"/>
			<point x="36" y="647" type="curve" smooth="yes"/>
			<point x="36" y="630"/>
			<point x="48" y="621"/>
		</contour>
		<contour>
			<point x="206" y="621" type="curve" smooth="yes"/>
			<point x="220" y="621"/>
			<point x="232" y="630"/>
			<point x="232" y="647" type="curve" smooth="yes"/>
			<point x="232" y="664"/>
			<point x="220" y="673"/>
			<point x="206" y="673" type="curve" smooth="yes"/>
			<point x="192" y="673"/>
			<point x="180" y="664"/>
			<point x="180" y="647" type="curve" smooth="yes"/>
			<point x="180" y="630"/>
			<point x="192" y="621"/>
		</contour>
		<component base="iota"/>
	</outline>
</glyph>
<glyph name="koppa" format="2">
	<unicode hex="03D9"/>
	<advance width="480"/>
	<outline>
		<contour>
			<point x="232" y="-208" type="line"/>
			<point x="254" y="-200" type="line"/>
			<point x="249" y="-7" type="line"/>
			<point x="231" y="-7" type="line"/>
			<point x="226" y="-204" type="line"/>
		</contour>
		<component base="omicron"/>
	</outline>
	<anchor name="aboveLC" x="240" y="468"/>
</glyph>
<glyph name="Nje" format="2">
	<unicode hex="040A"/>
	<advance width="902"/>
	<outline>
		<contour>
			<point x="48" y="0" type="line"/>
			<point x="263" y="0" type="line"/>
			<point x="263" y="10" type="line"/>
			<point x="162" y="16" type="line"/>
			<point x="148" y="16" type="line"/>
			<point x="48" y="10" type="line"/>
		</contour>
		<contour>
			<point x="140" y="0" type="curve"/>
			<point x="170" y="0" type="line"/>
			<point x="168" y="88"/>
			<point x="168" y="216"/>
			<point x="168" y="324" type="curve" smooth="yes"/>
			<point x="168" y="360" type="line" smooth="yes"/>
			<point x="168" y="464"/>
			<point x="168" y="590"/>
			<point x="170" y="676" type="curve"/>
			<point x="140" y="676" type="line"/>
			<point x="142" y="590"/>
			<point x="142" y="464"/>
			<point x="142" y="360" type="curve" smooth="yes"/>
			<point x="142" y="324" type="line" smooth="yes"/>
			<point x="142" y="216"/>
			<point x="142" y="88"/>
		</contour>
		<contour>
			<point x="148" y="660" type="line"/>
			<point x="162" y="660" type="line"/>
			<point x="263" y="666" type="line"/>
			<point x="263" y="676" type="line"/>
			<point x="48" y="676" type="line"/>
			<point x="48" y="666" type="line"/>
		</contour>
		<contour>
			<point x="155" y="354" type="line"/>
			<point x="525" y="354" type="line"/>
			<point x="525" y="368" type="line"/>
			<point x="155" y="368" type="line"/>
		</contour>
		<contour>
			<point x="418" y="0" type="line"/>
			<point x="524" y="0" type="line"/>
			<point x="524" y="16" type="line"/>
			<point x="518" y="16" type="line"/>
			<point x="418" y="10" type="line"/>
		</contour>
		<contour>
			<point x="510" y="0" type="curve"/>
			<point x="540" y="0" type="line"/>
			<point x="538" y="88"/>
			<point x="538" y="216"/>
			<point x="538" y="324" type="curve" smooth="yes"/>
			<point x="538" y="360" type="line" smooth="yes"/>
			<point x="538" y="464"/>
			<point x="538" y="590"/>
			<point x="540" y="676" type="curve"/>
			<point x="510" y="676" type="line"/>
			<point x="512" y="590"/>
			<point x="512" y="464"/>
			<point x="512" y="360" type="curve" smooth="yes"/>
			<point x="512" y="324" type="line" smooth="yes"/>
			<point x="512" y="216"/>
			<point x="512" y="88"/>
		</contour>
		<contour>
			<point x="518" y="660" type="line"/>
			<point x="532" y="660" type="line"/>
			<point x="632" y="666" type="line"/>
			<point x="632" y="676" type="line"/>
			<point x="418" y="676" type="line"/>
			<point x="418" y="666" type="line"/>
		</contour>
		<contour>
			<point x="525" y="0" type="line"/>
			<point x="616" y="0" type="line" smooth="yes"/>
			<point x="780" y="0"/>
			<point x="862" y="82"/>
			<point x="862" y="198" type="curve" smooth="yes"/>
			<point x="862" y="316"/>
			<point x="791" y="382"/>
			<point x="651" y="382" type="curve" smooth="yes"/>
			<point x="607" y="382"/>
			<point x="567" y="375"/>
			<point x="523" y="367" type="curve"/>
			<point x="523" y="354" type="line"/>
			<point x="566" y="362"/>
			<point x="604" y="366"/>
			<point x="647" y="366" type="curve" smooth="yes"/>
			<point x="775" y="366"/>
			<point x="835" y="312"/>
			<point x="835" y="198" type="curve" smooth="yes"/>
			<point x="835" y="90"/>
			<point x="770" y="14"/>
			<point x="605" y="14" type="curve" smooth="yes"/>
			<point x="525" y="14" type="line"/>
		</contour>
	</outline>
</glyph>
<glyph name="be" format="2">
	<unicode hex="0431"/>
	<advance width="484"/>
	<outline>
		<contour>
			<point x="248" y="-12" type="curve" smooth="yes"/>
			<point x="342" y="-12"/>
			<point x="440" y="67"/>
			<point x="440" y="230" type="curve" smooth="yes"/>
			<point x="440" y="392"/>
			<point x="346" y="460"/>
			<point x="252" y="460" type="curve" smooth="yes"/>
			<point x="157" y="460"/>
			<point x="82" y="388"/>
			<point x="64" y="272" type="curve"/>
			<point x="66" y="280" type="line"/>
			<point x="70" y="464"/>
			<point x="88" y="587"/>
			<point x="148" y="638" type="curve" smooth="yes"/>
			<point x="182" y="667"/>
			<point x="227" y="676"/>
			<point x="288" y="689" type="curve" smooth="yes"/>
			<point x="388" y="711"/>
			<point x="407" y="712"/>
			<point x="420" y="721" type="curve" smooth="yes"/>
			<point x="432" y="729"/>
			<point x="433" y="751"/>
			<point x="437" y="776" type="curve"/>
			<point x="429" y="777" type="line"/>
			<point x="414" y="740" type="line"/>
			<point x="383" y="733"/>
			<point x="322" y="721"/>
			<point x="280" y="712" type="curve" smooth="yes"/>
			<point x="217" y="699"/>
			<point x="175" y="689"/>
			<point x="136" y="652" type="curve" smooth="yes"/>
			<point x="65" y="585"/>
			<point x="52" y="437"/>
			<point x="52" y="264" type="curve" smooth="yes"/>
			<point x="52" y="60"/>
			<point x="146" y="-12"/>
		</contour>
		<contour>
			<point x="248" y="1" type="curve" smooth="yes"/>
			<point x="160" y="1"/>
			<point x="82" y="71"/>
			<point x="82" y="220" type="curve" smooth="yes"/>
			<point x="82" y="369"/>
			<point x="165" y="447"/>
			<point x="252" y="447" type="curve" smooth="yes"/>
			<point x="339" y="447"/>
			<point x="414" y="377"/>
			<point x="414" y="228" type="curve" smooth="yes"/>
			<point x="414" y="79"/>
			<point x="335" y="1"/>
		</contour>
	</outline>
</glyph>
<glyph name="pe" format="2">
	<unicode hex="043F"/>
	<advance width="560"/>
	<outline>
		<contour>
			<point x="119" y="0" type="curve"/>
			<point x="149" y="0" type="line"/>
			<point x="147" y="44"/>
			<point x="146" y="143"/>
			<point x="146" y="204" type="curve" smooth="yes"/>
			<point x="146" y="244" type="line" smooth="yes"/>
			<point x="146" y="305"/>
			<point x="147" y="404"/>
			<point x="149" y="448" type="curve"/>
			<point x="119" y="448" type="line"/>
			<point x="121" y="404"/>
			<point x="122" y="305"/>
			<point x="122" y="244" type="curve" smooth="yes"/>
			<point x="122" y="204" type="line" smooth="yes"/>
			<point x="122" y="143"/>
			<point x="121" y="44"/>
		</contour>
		<contour>
			<point x="411" y="0" type="curve"/>
			<point x="441" y="0" type="line"/>
			<point x="439" y="44"/>
			<point x="438" y="143"/>
			<point x="438" y="204" type="curve" smooth="yes"/>
			<point x="438" y="244" type="line" smooth="yes"/>
			<point x="438" y="305"/>
			<point x="439" y="404"/>
			<point x="441" y="448" type="curve"/>
			<point x="411" y="448" type="line"/>
			<point x="413" y="404"/>
			<point x="414" y="305"/>
			<point x="414" y="244" type="curve" smooth="yes"/>
			<point x="414" y="204" type="line" smooth="yes"/>
			<point x="414" y="143"/>
			<point x="413" y="44"/>
		</contour>
		<contour>
			<point x="40" y="0" type="line"/>
			<point x="224" y="0" type="line"/>
			<point x="224" y="10" type="line"/>
			<point x="136" y="16" type="line"/>
			<point x="132" y="16" type="line"/>
			<point x="40" y="10" type="line"/>
		</contour>
		<contour>
			<point x="336" y="0" type="line"/>
			<point x="520" y="0" type="line"/>
			<point x="520" y="10" type="line"/>
			<point x="428" y="16" type="line"/>
			<point x="424" y="16" type="line"/>
			<point x="336" y="10" type="line"/>
		</contour>
		<contour>
			<point x="40" y="438" type="line"/>
			<point x="132" y="432" type="line"/>
			<point x="136" y="432" type="line"/>
			<point x="136" y="448" type="line"/>
			<point x="40" y="448" type="line"/>
		</contour>
		<contour>
			<point x="424" y="432" type="line"/>
			<point x="428" y="432" type="line"/>
			<point x="520" y="438" type="line"/>
			<point x="520" y="448" type="line"/>
			<point x="424" y="448" type="line"/>
		</contour>
		<contour>
			<point x="138" y="434" type="line"/>
			<point x="424" y="434" type="line"/>
			<point x="424" y="448" type="line"/>
			<point x="138" y="448" type="line"/>
		</contour>
	</outline>
</glyph>
<glyph name="ecyr" format="2">
	<unicode hex="044D"/>
	<advance width="442"/>
	<outline>
		<contour>
			<point x="198" y="-12" type="curve" smooth="yes"/>
			<point x="302" y="-12"/>
			<point x="394" y="72"/>
			<point x="394" y="224" type="curve" smooth="yes"/>
			<point x="394" y="381"/>
			<point x="300" y="460"/>
			<point x="194" y="460" type="curve" smooth="yes"/>
			<point x="147" y="460"/>
			<point x="96" y="447"/>
			<point x="60" y="415" type="curve"/>
			<point x="65" y="316" type="line"/>
			<point x="75" y="316" type="line"/>
			<point x="84" y="422" type="line"/>
			<point x="78" y="413" type="line"/>
			<point x="110" y="438"/>
			<point x="152" y="447"/>
			<point x="194" y="447" type="curve" smooth="yes"/>
			<point x="293" y="447"/>
			<point x="368" y="351"/>
			<point x="368" y="220" type="curve" smooth="yes"/>
			<point x="368" y="82"/>
			<point x="294" y="1"/>
			<point x="198" y="1" type="curve" smooth="yes"/>
			<point x="152" y="1"/>
			<point x="119" y="13"/>
			<point x="87" y="43" type="curve"/>
			<point x="108" y="16" type="line"/>
			<point x="88" y="90" type="line" smooth="yes"/>
			<point x="85" y="102"/>
			<point x="80" y="107"/>
			<point x="69" y="107" type="curve" smooth="yes"/>
			<point x="59" y="107"/>
			<point x="53" y="101"/>
			<point x="52" y="89" type="curve"/>
			<point x="70" y="20"/>
			<point x="129" y="-12"/>
		</contour>
		<contour>
			<point x="131" y="217" type="line"/>
			<point x="386" y="219" type="line"/>
			<point x="386" y="232" type="line"/>
			<point x="131" y="235" type="line"/>
		</contour>
	</outline>
	<anchor name="aboveLC" x="204" y="468"/>
</glyph>
<glyph name="gheup" format="2">
	<unicode hex="0491"/>
	<advance width="400"/>
	<outline>
		<contour>
			<point x="119" y="0" type="curve"/>
			<point x="149" y="0" type="line"/>
			<point x="147" y="44"/>
			<point x="146" y="143"/>
			<point x="146" y="204" type="curve" smooth="yes"/>
			<point x="146" y="244" type="line" smooth="yes"/>
			<point x="146" y="305"/>
			<point x="147" y="404"/>
			<point x="149" y="448" type="curve"/>
			<point x="119" y="448" type="line"/>
			<point x="121" y="404"/>
			<point x="122" y="305"/>
			<point x="122" y="244" type="curve" smooth="yes"/>
			<point x="122" y="204" type="line" smooth="yes"/>
			<point x="122" y="143"/>
			<point x="121" y="44"/>
		</contour>
		<contour>
			<point x="123" y="448" type="line"/>
			<point x="123" y="434" type="line"/>
			<point x="361" y="434" type="line"/>
			<point x="372" y="574" type="line"/>
			<point x="362" y="574" type="line"/>
			<point x="337" y="440" type="line"/>
			<point x="348" y="448" type="line"/>
		</contour>
		<contour>
			<point x="40" y="0" type="line"/>
			<point x="232" y="0" type="line"/>
			<point x="232" y="10" type="line"/>
			<point x="136" y="16" type="line"/>
			<point x="132" y="16" type="line"/>
			<point x="40" y="10" type="line"/>
		</contour>
		<contour>
			<point x="40" y="438" type="line"/>
			<point x="132" y="432" type="line"/>
			<point x="136" y="432" type="line"/>
			<point x="136" y="448" type="line"/>
			<point x="40" y="448" type="line"/>
		</contour>
	</outline>
</glyph>
<glyph name="zhedescender" format="2">
	<unicode hex="0497"/>
	<advance width="692"/>
	<outline>
		<contour>
			<point x="667" y="0" type="line"/>
			<point x="656" y="8" type="line"/>
			<point x="665" y="-156" type="line"/>
			<point x="675" y="-156" type="line"/>
			<point x="680" y="10" type="line"/>
			<point x="588" y="16" type="line"/>
			<point x="600" y="0" type="line"/>
		</contour>
		<component base="zhe"/>
	</outline>
</glyph>
<glyph name="palochka" format="2">
	<unicode hex="04CF"/>
	<advance width="268"/>
	<outline>
		<contour>
			<point x="40" y="0" type="line"/>
			<point x="228" y="0" type="line"/>
			<point x="228" y="10" type="line"/>
			<point x="136" y="16" type="line"/>
			<point x="132" y="16" type="line"/>
			<point x="40" y="10" type="line"/>
		</contour>
		<contour>
			<point x="119" y="0" type="curve"/>
			<point x="149" y="0" type="line"/>
			<point x="147" y="44"/>
			<point x="146" y="143"/>
			<point x="146" y="204" type="curve" smooth="yes"/>
			<point x="146" y="539" type="line" smooth="yes"/>
			<point x="146" y="600"/>
			<point x="147" y="699"/>
			<point x="149" y="743" type="curve"/>
			<point x="119" y="743" type="line"/>
			<point x="121" y="699"/>
			<point x="122" y="600"/>
			<point x="122" y="539" type="curve" smooth="yes"/>
			<point x="122" y="204" type="line" smooth="yes"/>
			<point x="122" y="143"/>
			<point x="121" y="44"/>
		</contour>
		<contour>
			<point x="40" y="733" type="line"/>
			<point x="132" y="727" type="line"/>
			<point x="136" y="727" type="line"/>
			<point x="228" y="733" type="line"/>
			<point x="228" y="743" type="line"/>
			<point x="40" y="743" type="line"/>
		</contour>
	</outline>
</glyph>
<glyph name="a.sups" format="2">
	<unicode hex="1D43"/>
	<advance width="308"/>
	<outline>
		<contour>
			<point x="253" y="429" type="curve" smooth="yes"/>
			<point x="270" y="429"/>
			<point x="286" y="438"/>
			<point x="294" y="450" type="curve"/>
			<point x="289" y="454" type="line"/>
			<point x="279" y="444"/>
			<point x="269" y="441"/>
			<point x="259" y="441" type="curve" smooth="yes"/>
			<point x="242" y="441"/>
			<point x="233" y="450"/>
			<point x="233" y="474" type="curve" smooth="yes"/>
			<point x="233" y="633" type="line" smooth="yes"/>
			<point x="233" y="695"/>
			<point x="206" y="723"/>
			<point x="146" y="723" type="curve" smooth="yes"/>
			<point x="101" y="723"/>
			<point x="56" y="701"/>
			<point x="44" y="655" type="curve"/>
			<point x="45" y="646"/>
			<point x="50" y="641"/>
			<point x="58" y="641" type="curve" smooth="yes"/>
			<point x="68" y="641"/>
			<point x="73" y="645"/>
			<point x="76" y="655" type="curve" smooth="yes"/>
			<point x="88" y="702" type="line"/>
			<point x="77" y="693" type="line"/>
			<point x="98" y="706"/>
			<point x="117" y="713"/>
			<point x="141" y="713" type="curve" smooth="yes"/>
			<point x="188" y="713"/>
			<point x="211" y="690"/>
			<point x="211" y="626" type="curve" smooth="yes"/>
			<point x="211" y="474" type="line"/>
			<point x="211" y="473" type="line" smooth="yes"/>
			<point x="211" y="444"/>
			<point x="226" y="429"/>
		</contour>
		<contour>
			<point x="109" y="429" type="curve" smooth="yes"/>
			<point x="145" y="429"/>
			<point x="175" y="444"/>
			<point x="211" y="484" type="curve" smooth="yes"/>
			<point x="220" y="484" type="line"/>
			<point x="219" y="501" type="line"/>
			<point x="177" y="457"/>
			<point x="148" y="443"/>
			<point x="115" y="443" type="curve" smooth="yes"/>
			<point x="80" y="443"/>
			<point x="56" y="463"/>
			<point x="56" y="500" type="curve" smooth="yes"/>
			<point x="56" y="530"/>
			<point x="75" y="555"/>
			<point x="127" y="573" type="curve" smooth="yes"/>
			<point x="154" y="582"/>
			<point x="189" y="591"/>
			<point x="220" y="599" type="curve"/>
			<point x="220" y="606" type="line"/>
			<point x="187" y="599"/>
			<point x="152" y="591"/>
			<point x="123" y="582" type="curve" smooth="yes"/>
			<point x="59" y="562"/>
			<point x="33" y="535"/>
			<point x="33" y="496" type="curve" smooth="yes"/>
			<point x="33" y="452"/>
			<point x="63" y="429"/>
		</contour>
	</outline>
</glyph>
<glyph name="d.sups" format="2">
	<unicode hex="1D48"/>
	<advance width="350"/>
	<outline>
		<contour>
			<point x="151" y="429" type="curve" smooth="yes"/>
			<point x="190" y="429"/>
			<point x="226" y="447"/>
			<point x="254" y="486" type="curve"/>
			<point x="261" y="486" type="line"/>
			<point x="256" y="497" type="line"/>
			<point x="225" y="458"/>
			<point x="194" y="440"/>
			<point x="156" y="440" type="curve" smooth="yes"/>
			<point x="99" y="440"/>
			<point x="56" y="485"/>
			<point x="56" y="571" type="curve" smooth="yes"/>
			<point x="56" y="668"/>
			<point x="109" y="711"/>
			<point x="163" y="711" type="curve" smooth="yes"/>
			<point x="201" y="711"/>
			<point x="226" y="696"/>
			<point x="256" y="659" type="curve"/>
			<point x="261" y="669" type="line"/>
			<point x="255" y="669" type="line"/>
			<point x="230" y="709"/>
			<point x="195" y="723"/>
			<point x="161" y="723" type="curve" smooth="yes"/>
			<point x="95" y="723"/>
			<point x="32" y="672"/>
			<point x="32" y="569" type="curve" smooth="yes"/>
			<point x="32" y="477"/>
			<point x="86" y="429"/>
		</contour>
		<contour>
			<point x="252" y="434" type="line"/>
			<point x="325" y="436" type="line"/>
			<point x="325" y="443" type="line"/>
			<point x="274" y="447" type="line"/>
			<point x="274" y="896" type="line"/>
			<point x="270" y="900" type="line"/>
			<point x="198" y="891" type="line"/>
			<point x="198" y="884" type="line"/>
			<point x="252" y="882" type="line"/>
			<point x="252" y="671" type="line"/>
			<point x="252" y="668" type="line"/>
			<point x="252" y="486" type="line"/>
			<point x="252" y="485" type="line"/>
		</contour>
	</outline>
</glyph>
<glyph name="t.sups" format="2">
	<unicode hex="1D57"/>
	<advance width="201"/>
	<outline>
		<contour>
			<point x="131" y="429" type="curve" smooth="yes"/>
			<point x="155" y="429"/>
			<point x="171" y="437"/>
			<point x="185" y="452" type="curve"/>
			<point x="180" y="457" type="line"/>
			<point x="167" y="447"/>
			<point x="156" y="441"/>
			<point x="136" y="441" type="curve" smooth="yes"/>
			<point x="106" y="441"/>
			<point x="92" y="459"/>
			<point x="92" y="496" type="curve" smooth="yes"/>
			<point x="92" y="709" type="line"/>
			<point x="92" y="712" type="line"/>
			<point x="95" y="808" type="line"/>
			<point x="86" y="808" type="line"/>
			<point x="70" y="712" type="line"/>
			<point x="80" y="718" type="line"/>
			<point x="10" y="712" type="line"/>
			<point x="10" y="705" type="line"/>
			<point x="70" y="705" type="line"/>
			<point x="70" y="493" type="line" smooth="yes"/>
			<point x="70" y="451"/>
			<point x="90" y="429"/>
		</contour>
		<contour>
			<point x="82" y="705" type="line"/>
			<point x="181" y="705" type="line"/>
			<point x="181" y="715" type="line"/>
			<point x="82" y="715" type="line"/>
		</contour>
	</outline>
</glyph>
<glyph name="f.sups" format="2">
	<unicode hex="1DA0"/>
	<advance width="213"/>
	<outline>
		<contour>
			<point x="80" y="436" type="line"/>
			<point x="102" y="436" type="line"/>
			<point x="102" y="710" type="line"/>
			<point x="101" y="812"/>
			<point x="122" y="857"/>
			<point x="150" y="881" type="curve" smooth="yes"/>
			<point x="164" y="892"/>
			<point x="183" y="900"/>
			<point x="206" y="900" type="curve"/>
			<point x="183" y="903" type="line"/>
			<point x="178" y="900" type="line"/>
			<point x="195" y="889" type="line" smooth="yes"/>
			<point x="208" y="880"/>
			<point x="220" y="875"/>
			<point x="230" y="875" type="curve" smooth="yes"/>
			<point x="244" y="875"/>
			<point x="251" y="880"/>
			<point x="252" y="890" type="curve"/>
			<point x="247" y="902"/>
			<point x="228" y="907"/>
			<point x="209" y="907" type="curve" smooth="yes"/>
			<point x="182" y="907"/>
			<point x="158" y="899"/>
			<point x="139" y="883" type="curve" smooth="yes"/>
			<point x="104" y="853"/>
			<point x="81" y="811"/>
			<point x="80" y="711" type="curve"/>
			<point x="92" y="718" type="line"/>
			<point x="24" y="712" type="line"/>
			<point x="24" y="705" type="line"/>
			<point x="80" y="705" type="line"/>
		</contour>
		<contour>
			<point x="26" y="436" type="line"/>
			<point x="163" y="436" type="line"/>
			<point x="163" y="443" type="line"/>
			<point x="94" y="448" type="line"/>
			<point x="89" y="448" type="line"/>
			<point x="26" y="443" type="line"/>
		</contour>
		<contour>
			<point x="91" y="705" type="line"/>
			<point x="191" y="705" type="line"/>
			<point x="191" y="715" type="line"/>
			<point x="91" y="715" type="line"/>
		</contour>
	</outline>
</glyph>
<glyph name="emdash" format="2">
	<unicode hex="2014"/>
	<advance width="756"/>
	<outline>
		<contour>
			<point x="36" y="218" type="line"/>
			<point x="720" y="218" type="line"/>
			<point x="720" y="236" type="line"/>
			<point x="36" y="236" type="line"/>
		</contour>
	</outline>
</glyph>
<glyph name="quoteleft" format="2">
	<unicode hex="2018"/>
	<unicode hex="02BB"/>
	<advance width="174"/>
	<outline>
		<contour>
			<point x="52" y="636" type="curve" smooth="yes"/>
			<point x="52" y="613"/>
			<point x="58" y="600"/>
			<point x="70" y="585" type="curve"/>
			<point x="74" y="583"/>
			<point x="79" y="582"/>
			<point x="84" y="582" type="curve" smooth="yes"/>
			<point x="98" y="582"/>
			<point x="107" y="592"/>
			<point x="107" y="604" type="curve" smooth="yes"/>
			<point x="107" y="616"/>
			<point x="102" y="625"/>
			<point x="87" y="636" type="curve" smooth="yes"/>
			<point x="63" y="654" type="line"/>
			<point x="65" y="637" type="line"/>
			<point x="67" y="689"/>
			<point x="106" y="721"/>
			<point x="147" y="745" type="curve"/>
			<point x="142" y="754" type="line"/>
			<point x="87" y="726"/>
			<point x="52" y="684"/>
		</contour>
	</outline>
</glyph>
<glyph name="bullet" format="2">
	<unicode hex="2022"/>
	<advance width="300"/>
	<outline>
		<contour>
			<point x="150" y="244" type="curve" smooth="yes"/>
			<point x="188" y="244"/>
			<point x="220" y="273"/>
			<point x="220" y="316" type="curve" smooth="yes"/>
			<point x="220" y="359"/>
			<point x="188" y="388"/>
			<point x="150" y="388" type="curve" smooth="yes"/>
			<point x="112" y="388"/>
			<point x="80" y="359"/>
			<point x="80" y="316" type="curve" smooth="yes"/>
			<point x="80" y="273"/>
			<point x="112" y="244"/>
		</contour>
	</outline>
</glyph>
<glyph name="dong" format="2">
	<unicode hex="20AB"/>
	<advance width="460"/>
	<outline>
		<contour>
			<point x="48" y="0" type="line"/>
			<point x="412" y="0" type="line"/>
			<point x="412" y="12" type="line"/>
			<point x="48" y="12" type="line"/>
		</contour>
		<contour>
			<point x="192" y="84" type="curve" smooth="yes"/>
			<point x="233" y="84"/>
			<point x="282" y="100"/>
			<point x="328" y="176" type="curve"/>
			<point x="328" y="183" type="line"/>
			<point x="328" y="190" type="line"/>
			<point x="277" y="107"/>
			<point x="228" y="98"/>
			<point x="192" y="98" type="curve" smooth="yes"/>
			<point x="126" y="98"/>
			<point x="66" y="165"/>
			<point x="66" y="280" type="curve" smooth="yes"/>
			<point x="66" y="397"/>
			<point x="128" y="462"/>
			<point x="200" y="462" type="curve" smooth="yes"/>
			<point x="234" y="462"/>
			<point x="282" y="454"/>
			<point x="329" y="380" type="curve"/>
			<point x="329" y="386" type="line"/>
			<point x="329" y="393" type="line"/>
			<point x="287" y="461"/>
			<point x="239" y="476"/>
			<point x="200" y="476" type="curve" smooth="yes"/>
			<point x="111" y="476"/>
			<point x="40" y="403"/>
			<point x="40" y="280" type="curve" smooth="yes"/>
			<point x="40" y="167"/>
			<point x="102" y="84"/>
		</contour>
		<contour>
			<point x="108" y="552" type="line"/>
			<point x="420" y="552" type="line"/>
			<point x="420" y="564" type="line"/>
			<point x="108" y="564" type="line"/>
		</contour>
		<contour>
			<point x="312" y="94" type="line"/>
			<point x="414" y="96" type="line"/>
			<point x="414" y="106" type="line"/>
			<point x="336" y="112" type="line"/>
			<point x="336" y="516" type="line"/>
			<point x="338" y="683" type="line"/>
			<point x="332" y="688" type="line"/>
			<point x="230" y="680" type="line"/>
			<point x="230" y="670" type="line"/>
			<point x="312" y="670" type="line"/>
			<point x="312" y="412" type="line"/>
			<point x="312" y="404" type="line"/>
			<point x="312" y="160" type="line"/>
			<point x="312" y="158" type="line"/>
		</contour>
	</outline>
</glyph>
<glyph name="tenge" format="2">
	<unicode hex="20B8"/>
	<advance width="460"/>
	<outline>
		<contour>
			<point x="12" y="384" type="line"/>
			<point x="22" y="384" type="line"/>
			<point x="47" y="549" type="line"/>
			<point x="35" y="542" type="line"/>
			<point x="425" y="542" type="line"/>
			<point x="413" y="549" type="line"/>
			<point x="438" y="384" type="line"/>
			<point x="448" y="384" type="line"/>
			<point x="437" y="556" type="line"/>
			<point x="23" y="556" type="line"/>
		</contour>
		<contour>
			<point x="214" y="0" type="curve"/>
			<point x="244" y="0" type="line"/>
			<point x="242" y="72"/>
			<point x="242" y="178"/>
			<point x="242" y="266" type="curve" smooth="yes"/>
			<point x="242" y="296" type="line" smooth="yes"/>
			<point x="242" y="381"/>
			<point x="242" y="486"/>
			<point x="244" y="556" type="curve"/>
			<point x="214" y="556" type="line"/>
			<point x="216" y="486"/>
			<point x="216" y="381"/>
			<point x="216" y="296" type="curve" smooth="yes"/>
			<point x="216" y="266" type="line" smooth="yes"/>
			<point x="216" y="178"/>
			<point x="216" y="72"/>
		</contour>
		<contour>
			<point x="109" y="0" type="line"/>
			<point x="349" y="0" type="line"/>
			<point x="349" y="10" type="line"/>
			<point x="236" y="16" type="line"/>
			<point x="222" y="16" type="line"/>
			<point x="109" y="10" type="line"/>
		</contour>
		<contour>
			<point x="24" y="645" type="line"/>
			<point x="436" y="645" type="line"/>
			<point x="436" y="656" type="line"/>
			<point x="24" y="656" type="line"/>
		</contour>
	</outline>
</glyph>
<glyph name="arrowdown" format="2">
	<unicode hex="2193"/>
	<advance width="660"/>
	<outline>
		<contour>
			<point x="320" y="578" type="line"/>
			<point x="320" y="374" type="line"/>
			<point x="324" y="-28" type="line"/>
			<point x="341" y="-28" type="line"/>
			<point x="38" y="286" type="line"/>
			<point x="30" y="278" type="line"/>
			<point x="327" y="-42" type="line"/>
			<point x="333" y="-42" type="line"/>
			<point x="630" y="278" type="line"/>
			<point x="622" y="286" type="line"/>
			<point x="319" y="-28" type="line"/>
			<point x="336" y="-28" type="line"/>
			<point x="340" y="374" type="line"/>
			<point x="340" y="578" type="line"/>
		</contour>
	</outline>
</glyph>
<glyph name="integral" format="2">
	<unicode hex="222B"/>
	<advance width="316"/>
	<outline>
		<contour>
			<point x="158" y="-20" type="curve" smooth="yes"/>
			<point x="158" y="-123"/>
			<point x="116" y="-239"/>
			<point x="8" y="-248" type="curve"/>
			<point x="43" y="-248" type="line"/>
			<point x="51" y="-248" type="line"/>
			<point x="28" y="-232" type="line" smooth="yes"/>
			<point x="11" y="-220"/>
			<point x="-6" y="-212"/>
			<point x="-20" y="-212" type="curve" smooth="yes"/>
			<point x="-39" y="-212"/>
			<point x="-47" y="-219"/>
			<point x="-48" y="-232" type="curve"/>
			<point x="-41" y="-249"/>
			<point x="-15" y="-256"/>
			<point x="12" y="-256" type="curve" smooth="yes"/>
			<point x="85" y="-256"/>
			<point x="184" y="-182"/>
			<point x="184" y="16" type="curve" smooth="yes"/>
			<point x="184" y="188"/>
			<point x="158" y="364"/>
			<point x="158" y="536" type="curve" smooth="yes"/>
			<point x="158" y="639"/>
			<point x="200" y="755"/>
			<point x="308" y="764" type="curve"/>
			<point x="273" y="764" type="line"/>
			<point x="265" y="764" type="line"/>
			<point x="288" y="748" type="line" smooth="yes"/>
			<point x="305" y="736"/>
			<point x="322" y="728"/>
			<point x="336" y="728" type="curve" smooth="yes"/>
			<point x="355" y="728"/>
			<point x="363" y="735"/>
			<point x="364" y="748" type="curve"/>
			<point x="357" y="765"/>
			<point x="331" y="772"/>
			<point x="304" y="772" type="curve" smooth="yes"/>
			<point x="231" y="772"/>
			<point x="132" y="698"/>
			<point x="132" y="500" type="curve" smooth="yes"/>
			<point x="132" y="328"/>
			<point x="158" y="156"/>
		</contour>
	</outline>
</glyph>
<glyph name="greaterequal" format="2">
	<unicode hex="2265"/>
	<advance width="496"/>
	<outline>
		<contour>
			<point x="36" y="0" type="line"/>
			<point x="460" y="0" type="line"/>
			<point x="460" y="16" type="line"/>
			<point x="36" y="16" type="line"/>
		</contour>
		<contour>
			<point x="444" y="310" type="line"/>
			<point x="444" y="316" type="line"/>
			<point x="65" y="521" type="line"/>
			<point x="56" y="508" type="line"/>
			<point x="424" y="310" type="line"/>
			<point x="424" y="316" type="line"/>
			<point x="56" y="112" type="line"/>
			<point x="65" y="99" type="line"/>
		</contour>
	</outline>
</glyph>
<glyph name="triangleblackleft" format="2">
	<unicode hex="25C0"/>
	<advance width="600"/>
	<outline>
		<contour>
			<point x="496" y="16" type="line"/>
			<point x="502" y="20" type="line"/>
			<point x="502" y="500" type="line"/>
			<point x="496" y="504" type="line"/>
			<point x="79" y="264" type="line"/>
			<point x="79" y="256" type="line"/>
		</contour>
	</outline>
</glyph>
<glyph name="lozenge" format="2">
	<unicode hex="25CA"/>
	<advance width="560"/>
	<outline>
		<contour>
			<point x="450" y="322" type="line"/>
			<point x="281" y="-15" type="line"/>
			<point x="109" y="321" type="line"/>
			<point x="279" y="659" type="line"/>
		</contour>
		<contour>
			<point x="476" y="324" type="line"/>
			<point x="284" y="700" type="line"/>
			<point x="276" y="700" type="line"/>
			<point x="84" y="320" type="line"/>
			<point x="276" y="-56" type="line"/>
			<point x="284" y="-56" type="line"/>
		</contour>
	</outline>
</glyph>
<glyph name="twoemdash" format="2">
	<unicode hex="2E3A"/>
	<advance width="1448"/>
	<outline>
		<contour>
			<point x="36" y="218" type="line"/>
			<point x="1412" y="218" type="line"/>
			<point x="1412" y="236" type="line"/>
			<point x="36" y="236" type="line"/>
		</contour>
	</outline>
</glyph>
<glyph name="threeemdash" format="2">
	<unicode hex="2E3B"/>
	<advance width="2132"/>
	<outline>
		<contour>
			<point x="36" y="218" type="line"/>
			<point x="2096" y="218" type="line"/>
			<point x="2096" y="236" type="line"/>
			<point x="36" y="236" type="line"/>
		</contour>
	</outline>
</glyph>
<glyph name="copyleft" format="2">
	<unicode hex="1F12F"/>
	<advance width="759"/>
	<outline>
		<contour>
			<point x="368" y="130" type="curve" smooth="yes"/>
			<point x="484" y="130"/>
			<point x="557" y="217"/>
			<point x="557" y="342" type="curve" smooth="yes"/>
			<point x="557" y="467"/>
			<point x="479" y="553"/>
			<point x="367" y="553" type="curve" smooth="yes"/>
			<point x="328" y="553"/>
			<point x="293" y="546"/>
			<point x="258" y="522" type="curve"/>
			<point x="253" y="432" type="line"/>
			<point x="261" y="432" type="line"/>
			<point x="283" y="526" type="line"/>
			<point x="277" y="520" type="line"/>
			<point x="306" y="537"/>
			<point x="331" y="543"/>
			<point x="366" y="543" type="curve" smooth="yes"/>
			<point x="464" y="543"/>
			<point x="529" y="467"/>
			<point x="529" y="341" type="curve" smooth="yes"/>
			<point x="529" y="215"/>
			<point x="462" y="140"/>
			<point x="368" y="140" type="curve" smooth="yes"/>
			<point x="336" y="140"/>
			<point x="304" y="145"/>
			<point x="273" y="163" type="curve"/>
			<point x="278" y="157" type="line"/>
			<point x="256" y="251" type="line"/>
			<point x="248" y="251" type="line"/>
			<point x="253" y="161" type="line"/>
			<point x="293" y="136"/>
			<point x="327" y="130"/>
		</contour>
		<contour>
			<point x="380" y="-12" type="curve" smooth="yes"/>
			<point x="570" y="-12"/>
			<point x="729" y="121"/>
			<point x="729" y="340" type="curve" smooth="yes"/>
			<point x="729" y="559"/>
			<point x="570" y="688"/>
			<point x="380" y="688" type="curve" smooth="yes"/>
			<point x="190" y="688"/>
			<point x="30" y="559"/>
			<point x="30" y="340" type="curve" smooth="yes"/>
			<point x="30" y="121"/>
			<point x="190" y="-12"/>
		</contour>
		<contour>
			<point x="380" y="2" type="curve" smooth="yes"/>
			<point x="194" y="2"/>
			<point x="50" y="129"/>
			<point x="50" y="340" type="curve" smooth="yes"/>
			<point x="50" y="547"/>
			<point x="194" y="673"/>
			<point x="380" y="673" type="curve" smooth="yes"/>
			<point x="566" y="673"/>
			<point x="710" y="546"/>
			<point x="710" y="340" type="curve" smooth="yes"/>
			<point x="710" y="134"/>
			<point x="567" y="2"/>
		</contour>
	</outline>
</glyph>
<glyph name="Be.sc" format="2">
	<advance width="492"/>
	<outline>
		<contour>
			<point x="149" y="0" type="line"/>
			<point x="229" y="0" type="line" smooth="yes"/>
			<point x="372" y="0"/>
			<point x="444" y="67"/>
			<point x="444" y="158" type="curve" smooth="yes"/>
			<point x="444" y="251"/>
			<point x="381" y="305"/>
			<point x="259" y="305" type="curve" smooth="yes"/>
			<point x="221" y="305"/>
			<point x="186" y="300"/>
			<point x="147" y="293" type="curve"/>
			<point x="147" y="281" type="line"/>
			<point x="185" y="287"/>
			<point x="218" y="291"/>
			<point x="255" y="291" type="curve" smooth="yes"/>
			<point x="367" y="291"/>
			<point x="419" y="247"/>
			<point x="419" y="158" type="curve" smooth="yes"/>
			<point x="419" y="73"/>
			<point x="363" y="13"/>
			<point x="220" y="13" type="curve" smooth="yes"/>
			<point x="149" y="13" type="line"/>
		</contour>
		<contour>
			<point x="135" y="0" type="curve"/>
			<point x="163" y="0" type="line"/>
			<point x="161" y="71"/>
			<point x="161" y="177"/>
			<point x="161" y="266" type="curve" smooth="yes"/>
			<point x="161" y="297" type="line" smooth="yes"/>
			<point x="161" y="382"/>
			<point x="161" y="486"/>
			<point x="163" y="556" type="curve"/>
			<point x="135" y="556" type="line"/>
			<point x="137" y="486"/>
			<point x="137" y="382"/>
			<point x="137" y="297" type="curve" smooth="yes"/>
			<point x="137" y="266" type="line" smooth="yes"/>
			<point x="137" y="177"/>
			<point x="137" y="71"/>
		</contour>
		<contour>
			<point x="407" y="419" type="line"/>
			<point x="415" y="419" type="line"/>
			<point x="406" y="556" type="line"/>
			<point x="149" y="556" type="line"/>
			<point x="149" y="543" type="line"/>
			<point x="394" y="543" type="line"/>
			<point x="384" y="550" type="line"/>
		</contour>
		<contour>
			<point x="56" y="0" type="line"/>
			<point x="149" y="0" type="line"/>
			<point x="149" y="15" type="line"/>
			<point x="143" y="15" type="line"/>
			<point x="56" y="9" type="line"/>
		</contour>
		<contour>
			<point x="56" y="547" type="line"/>
			<point x="143" y="541" type="line"/>
			<point x="156" y="541" type="line"/>
			<point x="157" y="556" type="line"/>
			<point x="56" y="556" type="line"/>
		</contour>
	</outline>
</glyph>
<glyph name="D.sups" format="2">
	<advance width="428"/>
	<outline>
		<contour>
			<point x="93" y="436" type="line"/>
			<point x="117" y="436" type="line"/>
			<point x="117" y="855" type="line"/>
			<point x="93" y="855" type="line"/>
		</contour>
		<contour>
			<point x="32" y="848" type="line"/>
			<point x="99" y="844" type="line"/>
			<point x="111" y="844" type="line"/>
			<point x="111" y="855" type="line"/>
			<point x="32" y="855" type="line"/>
		</contour>
		<contour>
			<point x="32" y="436" type="line"/>
			<point x="111" y="436" type="line"/>
			<point x="111" y="448" type="line"/>
			<point x="99" y="448" type="line"/>
			<point x="32" y="443" type="line"/>
		</contour>
		<contour>
			<point x="109" y="436" type="line"/>
			<point x="180" y="436" type="line" smooth="yes"/>
			<point x="314" y="436"/>
			<point x="391" y="518"/>
			<point x="391" y="646" type="curve" smooth="yes"/>
			<point x="391" y="781"/>
			<point x="316" y="855"/>
			<point x="185" y="855" type="curve" smooth="yes"/>
			<point x="109" y="855" type="line"/>
			<point x="109" y="845" type="line"/>
			<point x="181" y="845" type="line" smooth="yes"/>
			<point x="302" y="845"/>
			<point x="365" y="778"/>
			<point x="365" y="646" type="curve" smooth="yes"/>
			<point x="365" y="524"/>
			<point x="302" y="446"/>
			<point x="172" y="446" type="curve" smooth="yes"/>
			<point x="109" y="446" type="line"/>
		</contour>
	</outline>
</glyph>
<glyph name="Dzhe.sc" format="2">
	<advance width="635"/>
	<outline>
		<contour>
			<point x="135" y="0" type="curve"/>
			<point x="163" y="0" type="line"/>
			<point x="161" y="71"/>
			<point x="161" y="177"/>
			<point x="161" y="266" type="curve" smooth="yes"/>
			<point x="161" y="297" type="line" smooth="yes"/>
			<point x="161" y="382"/>
			<point x="161" y="486"/>
			<point x="163" y="556" type="curve"/>
			<point x="135" y="556" type="line"/>
			<point x="137" y="486"/>
			<point x="137" y="382"/>
			<point x="137" y="297" type="curve" smooth="yes"/>
			<point x="137" y="266" type="line" smooth="yes"/>
			<point x="137" y="177"/>
			<point x="137" y="71"/>
		</contour>
		<contour>
			<point x="472" y="0" type="curve"/>
			<point x="500" y="0" type="line"/>
			<point x="498" y="71"/>
			<point x="498" y="177"/>
			<point x="498" y="266" type="curve" smooth="yes"/>
			<point x="498" y="297" type="line" smooth="yes"/>
			<point x="498" y="382"/>
			<point x="498" y="486"/>
			<point x="500" y="556" type="curve"/>
			<point x="472" y="556" type="line"/>
			<point x="474" y="486"/>
			<point x="474" y="382"/>
			<point x="474" y="297" type="curve" smooth="yes"/>
			<point x="474" y="266" type="line" smooth="yes"/>
			<point x="474" y="177"/>
			<point x="474" y="71"/>
		</contour>
		<contour>
			<point x="56" y="547" type="line"/>
			<point x="143" y="541" type="line"/>
			<point x="156" y="541" type="line"/>
			<point x="244" y="547" type="line"/>
			<point x="244" y="556" type="line"/>
			<point x="56" y="556" type="line"/>
		</contour>
		<contour>
			<point x="391" y="547" type="line"/>
			<point x="479" y="541" type="line"/>
			<point x="492" y="541" type="line"/>
			<point x="579" y="547" type="line"/>
			<point x="579" y="556" type="line"/>
			<point x="391" y="556" type="line"/>
		</contour>
		<contour>
			<point x="56" y="0" type="line"/>
			<point x="154" y="0" type="line"/>
			<point x="154" y="15" type="line"/>
			<point x="143" y="15" type="line"/>
			<point x="56" y="9" type="line"/>
		</contour>
		<contour>
			<point x="579" y="0" type="line"/>
			<point x="579" y="9" type="line"/>
			<point x="492" y="15" type="line"/>
			<point x="481" y="15" type="line"/>
			<point x="481" y="0" type="line"/>
		</contour>
		<contour>
			<point x="305" y="11" type="line"/>
			<point x="314" y="-156" type="line"/>
			<point x="324" y="-156" type="line"/>
			<point x="329" y="11" type="line"/>
		</contour>
		<contour>
			<point x="487" y="0" type="line"/>
			<point x="487" y="13" type="line"/>
			<point x="149" y="13" type="line"/>
			<point x="149" y="0" type="line"/>
		</contour>
	</outline>
</glyph>
<glyph name="El.sc" format="2">
	<advance width="600"/>
	<outline>
		<contour>
			<point x="28" y="17" type="curve"/>
			<point x="29" y="1"/>
			<point x="44" y="-11"/>
			<point x="66" y="-11" type="curve" smooth="yes"/>
			<point x="106" y="-11"/>
			<point x="136" y="29"/>
			<point x="159" y="87" type="curve" smooth="yes"/>
			<point x="210" y="212"/>
			<point x="230" y="404"/>
			<point x="239" y="543" type="curve"/>
			<point x="224" y="543" type="line"/>
			<point x="216" y="406"/>
			<point x="196" y="212"/>
			<point x="147" y="93" type="curve" smooth="yes"/>
			<point x="132" y="58"/>
			<point x="115" y="27"/>
			<point x="93" y="13" type="curve"/>
			<point x="93" y="10" type="line"/>
			<point x="98" y="10" type="line"/>
			<point x="98" y="13" type="line"/>
			<point x="86" y="32"/>
			<point x="74" y="38"/>
			<point x="58" y="38" type="curve" smooth="yes"/>
			<point x="44" y="38"/>
			<point x="30" y="30"/>
		</contour>
		<contour>
			<point x="435" y="0" type="curve"/>
			<point x="463" y="0" type="line"/>
			<point x="461" y="71"/>
			<point x="461" y="171"/>
			<point x="461" y="260" type="curve" smooth="yes"/>
			<point x="461" y="291" type="line" smooth="yes"/>
			<point x="461" y="376"/>
			<point x="461" y="473"/>
			<point x="463" y="543" type="curve"/>
			<point x="435" y="543" type="line"/>
			<point x="437" y="473"/>
			<point x="437" y="376"/>
			<point x="437" y="291" type="curve" smooth="yes"/>
			<point x="437" y="260" type="line" smooth="yes"/>
			<point x="437" y="171"/>
			<point x="437" y="71"/>
		</contour>
		<contour>
			<point x="355" y="0" type="line"/>
			<point x="544" y="0" type="line"/>
			<point x="544" y="9" type="line"/>
			<point x="455" y="15" type="line"/>
			<point x="442" y="15" type="line"/>
			<point x="355" y="9" type="line"/>
		</contour>
		<contour>
			<point x="140" y="534" type="line"/>
			<point x="228" y="528" type="line"/>
			<point x="233" y="528" type="line"/>
			<point x="233" y="543" type="line"/>
			<point x="140" y="543" type="line"/>
		</contour>
		<contour>
			<point x="442" y="528" type="line"/>
			<point x="455" y="528" type="line"/>
			<point x="544" y="534" type="line"/>
			<point x="544" y="543" type="line"/>
			<point x="442" y="543" type="line"/>
		</contour>
		<contour>
			<point x="224" y="530" type="line"/>
			<point x="450" y="530" type="line"/>
			<point x="450" y="543" type="line"/>
			<point x="224" y="543" type="line"/>
		</contour>
	</outline>
</glyph>
<glyph name="Eth.sc" format="2">
	<advance width="584"/>
	<outline>
		<contour>
			<point x="326" y="279" type="line"/>
			<point x="326" y="291" type="line"/>
			<point x="58" y="291" type="line"/>
			<point x="58" y="279" type="line"/>
		</contour>
		<component base="D.sc"/>
	</outline>
</glyph>
<glyph name="Germandbls.sc" format="2">
	<advance width="596"/>
	<outline>
		<contour>
			<point x="56" y="0" type="line"/>
			<point x="151" y="0" type="line"/>
			<point x="154" y="15" type="line"/>
			<point x="150" y="15" type="line"/>
			<point x="56" y="9" type="line"/>
		</contour>
		<contour>
			<point x="135" y="0" type="curve"/>
			<point x="163" y="0" type="line"/>
			<point x="161" y="81"/>
			<point x="161" y="192"/>
			<point x="161" y="285" type="curve" smooth="yes"/>
			<point x="161" y="359" type="line" smooth="yes"/>
			<point x="161" y="497"/>
			<point x="249" y="542"/>
			<point x="351" y="542" type="curve" smooth="yes"/>
			<point x="402" y="542"/>
			<point x="456" y="531"/>
			<point x="498" y="508" type="curve"/>
			<point x="498" y="514" type="line"/>
			<point x="435" y="481"/>
			<point x="394" y="434"/>
			<point x="394" y="377" type="curve" smooth="yes"/>
			<point x="394" y="322"/>
			<point x="426" y="291"/>
			<point x="460" y="254" type="curve" smooth="yes"/>
			<point x="482" y="230" type="line" smooth="yes"/>
			<point x="516" y="193"/>
			<point x="549" y="166"/>
			<point x="549" y="121" type="curve" smooth="yes"/>
			<point x="549" y="60"/>
			<point x="503" y="1"/>
			<point x="416" y="1" type="curve" smooth="yes"/>
			<point x="371" y="1"/>
			<point x="334" y="12"/>
			<point x="300" y="39" type="curve"/>
			<point x="314" y="20" type="line"/>
			<point x="305" y="149" type="line"/>
			<point x="296" y="149" type="line"/>
			<point x="293" y="31" type="line"/>
			<point x="319" y="7"/>
			<point x="366" y="-10"/>
			<point x="417" y="-10" type="curve" smooth="yes"/>
			<point x="520" y="-10"/>
			<point x="568" y="53"/>
			<point x="568" y="121" type="curve" smooth="yes"/>
			<point x="568" y="183"/>
			<point x="531" y="212"/>
			<point x="497" y="249" type="curve" smooth="yes"/>
			<point x="475" y="273" type="line" smooth="yes"/>
			<point x="442" y="307"/>
			<point x="413" y="334"/>
			<point x="413" y="378" type="curve" smooth="yes"/>
			<point x="413" y="430"/>
			<point x="445" y="474"/>
			<point x="505" y="508" type="curve"/>
			<point x="505" y="515" type="line"/>
			<point x="462" y="542"/>
			<point x="406" y="553"/>
			<point x="351" y="553" type="curve" smooth="yes"/>
			<point x="239" y="553"/>
			<point x="137" y="502"/>
			<point x="137" y="359" type="curve" smooth="yes"/>
			<point x="137" y="285" type="line" smooth="yes"/>
			<point x="137" y="192"/>
			<point x="137" y="81"/>
		</contour>
	</outline>
</glyph>
<glyph name="Ghestroke.sc" format="2">
	<advance width="472"/>
	<outline>
		<contour>
			<point x="60" y="279" type="line"/>
			<point x="324" y="279" type="line"/>
			<point x="324" y="291" type="line"/>
			<point x="60" y="291" type="line"/>
		</contour>
		<component base="Ghe.sc"/>
	</outline>
</glyph>
<glyph name="Hard.sc" format="2">
	<advance width="579"/>
	<outline>
		<contour>
			<point x="237" y="0" type="line"/>
			<point x="317" y="0" type="line" smooth="yes"/>
			<point x="460" y="0"/>
			<point x="531" y="69"/>
			<point x="531" y="163" type="curve" smooth="yes"/>
			<point x="531" y="260"/>
			<point x="469" y="315"/>
			<point x="347" y="315" type="curve" smooth="yes"/>
			<point x="309" y="315"/>
			<point x="274" y="310"/>
			<point x="235" y="303" type="curve"/>
			<point x="235" y="291" type="line"/>
			<point x="273" y="298"/>
			<point x="306" y="301"/>
			<point x="343" y="301" type="curve" smooth="yes"/>
			<point x="454" y="301"/>
			<point x="506" y="256"/>
			<point x="506" y="163" type="curve" smooth="yes"/>
			<point x="506" y="75"/>
			<point x="450" y="13"/>
			<point x="308" y="13" type="curve" smooth="yes"/>
			<point x="237" y="13" type="line"/>
		</contour>
		<contour>
			<point x="223" y="0" type="curve"/>
			<point x="251" y="0" type="line"/>
			<point x="249" y="71"/>
			<point x="249" y="177"/>
			<point x="249" y="266" type="curve" smooth="yes"/>
			<point x="249" y="297" type="line" smooth="yes"/>
			<point x="249" y="382"/>
			<point x="249" y="486"/>
			<point x="251" y="556" type="curve"/>
			<point x="223" y="556" type="line"/>
			<point x="225" y="486"/>
			<point x="225" y="382"/>
			<point x="225" y="297" type="curve" smooth="yes"/>
			<point x="225" y="266" type="line" smooth="yes"/>
			<point x="225" y="177"/>
			<point x="225" y="71"/>
		</contour>
		<contour>
			<point x="32" y="409" type="line"/>
			<point x="41" y="409" type="line"/>
			<point x="64" y="550" type="line"/>
			<point x="53" y="543" type="line"/>
			<point x="227" y="543" type="line"/>
			<point x="227" y="556" type="line"/>
			<point x="42" y="556" type="line"/>
		</contour>
		<contour>
			<point x="144" y="0" type="line"/>
			<point x="237" y="0" type="line"/>
			<point x="237" y="15" type="line"/>
			<point x="231" y="15" type="line"/>
			<point x="144" y="9" type="line"/>
		</contour>
		<contour>
			<point x="231" y="541" type="line"/>
			<point x="244" y="541" type="line"/>
			<point x="331" y="547" type="line"/>
			<point x="331" y="556" type="line"/>
			<point x="232" y="556" type="line"/>
		</contour>
	</outline>
</glyph>
<glyph name="Idieresis.sc" format="2">
	<advance width="299"/>
	<outline>
		<contour>
			<point x="88" y="641" type="curve" smooth="yes"/>
			<point x="102" y="641"/>
			<point x="114" y="650"/>
			<point x="114" y="667" type="curve" smooth="yes"/>
			<point x="114" y="684"/>
			<point x="102" y="693"/>
			<point x="88" y="693" type="curve" smooth="yes"/>
			<point x="74" y="693"/>
			<point x="62" y="684"/>
			<point x="62" y="667" type="curve" smooth="yes"/>
			<point x="62" y="650"/>
			<point x="74" y="641"/>
		</contour>
		<contour>
			<point x="212" y="641" type="curve" smooth="yes"/>
			<point x="226" y="641"/>
			<point x="238" y="650"/>
			<point x="238" y="667" type="curve" smooth="yes"/>
			<point x="238" y="684"/>
			<point x="226" y="693"/>
			<point x="212" y="693" type="curve" smooth="yes"/>
			<point x="198" y="693"/>
			<point x="186" y="684"/>
			<point x="186" y="667" type="curve" smooth="yes"/>
			<point x="186" y="650"/>
			<point x="198" y="641"/>
		</contour>
		<component base="I.sc"/>
	</outline>
</glyph>
<glyph name="J.sc" format="2">
	<advance width="309"/>
	<outline>
		<contour>
			<point x="49" y="-101" type="curve" smooth="yes"/>
			<point x="84" y="-101"/>
			<point x="107" y="-89"/>
			<point x="134" y="-53" type="curve" smooth="yes"/>
			<point x="165" y="-11"/>
			<point x="166" y="53"/>
			<point x="166" y="165" type="curve" smooth="yes"/>
			<point x="166" y="298" type="line" smooth="yes"/>
			<point x="166" y="386"/>
			<point x="166" y="471"/>
			<point x="168" y="556" type="curve"/>
			<point x="140" y="556" type="line"/>
			<point x="141" y="401"/>
			<point x="142" y="246"/>
			<point x="142" y="101" type="curve" smooth="yes"/>
			<point x="142" y="-22"/>
			<point x="119" y="-68"/>
			<point x="64" y="-89" type="curve"/>
			<point x="64" y="-91" type="line"/>
			<point x="83" y="-91" type="line"/>
			<point x="83" y="-88" type="line"/>
			<point x="65" y="-75" type="line" smooth="yes"/>
			<point x="53" y="-66"/>
			<point x="46" y="-63"/>
			<point x="32" y="-63" type="curve" smooth="yes"/>
			<point x="20" y="-63"/>
			<point x="11" y="-68"/>
			<point x="9" y="-80" type="curve"/>
			<point x="10" y="-91"/>
			<point x="26" y="-101"/>
		</contour>
		<contour>
			<point x="50" y="547" type="line"/>
			<point x="148" y="541" type="line"/>
			<point x="160" y="541" type="line"/>
			<point x="249" y="547" type="line"/>
			<point x="249" y="556" type="line"/>
			<point x="50" y="556" type="line"/>
		</contour>
	</outline>
	<anchor name="aboveUC" x="155" y="576"/>
	<anchor name="belowLC" x="28" y="-121"/>
</glyph>
<glyph name="Kabashkir.sc" format="2">
	<advance width="641"/>
	<outline>
		<contour>
			<point x="577" y="-2" type="curve" smooth="yes"/>
			<point x="600" y="-2"/>
			<point x="617" y="-1"/>
			<point x="625" y="0" type="curve"/>
			<point x="625" y="9" type="line"/>
			<point x="536" y="15" type="line"/>
			<point x="551" y="8" type="line"/>
			<point x="446" y="195" type="line" smooth="yes"/>
			<point x="417" y="253"/>
			<point x="391" y="276"/>
			<point x="328" y="283" type="curve"/>
			<point x="309" y="276" type="line"/>
			<point x="375" y="280"/>
			<point x="399" y="290"/>
			<point x="453" y="405" type="curve" smooth="yes"/>
			<point x="477" y="461"/>
			<point x="495" y="496"/>
			<point x="529" y="533" type="curve"/>
			<point x="509" y="519" type="line"/>
			<point x="519" y="513"/>
			<point x="542" y="505"/>
			<point x="560" y="505" type="curve" smooth="yes"/>
			<point x="577" y="505"/>
			<point x="591" y="512"/>
			<point x="591" y="529" type="curve" smooth="yes"/>
			<point x="591" y="543"/>
			<point x="580" y="551"/>
			<point x="567" y="554" type="curve"/>
			<point x="513" y="554"/>
			<point x="493" y="526"/>
			<point x="440" y="411" type="curve" smooth="yes"/>
			<point x="384" y="298"/>
			<point x="368" y="287"/>
			<point x="304" y="287" type="curve" smooth="yes"/>
			<point x="238" y="287" type="line"/>
			<point x="238" y="274" type="line"/>
			<point x="299" y="274" type="line" smooth="yes"/>
			<point x="373" y="274"/>
			<point x="393" y="249"/>
			<point x="424" y="190" type="curve" smooth="yes"/>
			<point x="512" y="29" type="line" smooth="yes"/>
			<point x="525" y="4"/>
			<point x="537" y="-2"/>
		</contour>
		<contour>
			<point x="223" y="0" type="curve"/>
			<point x="251" y="0" type="line"/>
			<point x="249" y="71"/>
			<point x="249" y="171"/>
			<point x="249" y="260" type="curve" smooth="yes"/>
			<point x="249" y="291" type="line" smooth="yes"/>
			<point x="249" y="376"/>
			<point x="249" y="473"/>
			<point x="251" y="543" type="curve"/>
			<point x="223" y="543" type="line"/>
			<point x="225" y="473"/>
			<point x="225" y="376"/>
			<point x="225" y="291" type="curve" smooth="yes"/>
			<point x="225" y="260" type="line" smooth="yes"/>
			<point x="225" y="171"/>
			<point x="225" y="71"/>
		</contour>
		<contour>
			<point x="32" y="396" type="line"/>
			<point x="41" y="396" type="line"/>
			<point x="64" y="537" type="line"/>
			<point x="53" y="530" type="line"/>
			<point x="227" y="530" type="line"/>
			<point x="227" y="543" type="line"/>
			<point x="42" y="543" type="line"/>
		</contour>
		<contour>
			<point x="144" y="0" type="line"/>
			<point x="332" y="0" type="line"/>
			<point x="332" y="9" type="line"/>
			<point x="244" y="15" type="line"/>
			<point x="231" y="15" type="line"/>
			<point x="144" y="9" type="line"/>
		</contour>
		<contour>
			<point x="231" y="528" type="line"/>
			<point x="244" y="528" type="line"/>
			<point x="332" y="534" type="line"/>
			<point x="332" y="543" type="line"/>
			<point x="231" y="543" type="line"/>
		</contour>
	</outline>
</glyph>
<glyph name="Kadescender.sc" format="2">
	<advance width="557"/>
	<outline>
		<contour>
			<point x="473" y="0" type="line"/>
			<point x="528" y="0" type="line"/>
			<point x="517" y="8" type="line"/>
			<point x="526" y="-156" type="line"/>
			<point x="536" y="-156" type="line"/>
			<point x="541" y="9" type="line"/>
			<point x="453" y="15" type="line"/>
		</contour>
		<component base="Ka.sc"/>
	</outline>
</glyph>
<glyph name="L.sc" format="2">
	<advance width="476"/>
	<outline>
		<contour>
			<point x="136" y="0" type="curve"/>
			<point x="164" y="0" type="line"/>
			<point x="162" y="71"/>
			<point x="162" y="177"/>
			<point x="162" y="266" type="curve" smooth="yes"/>
			<point x="162" y="297" type="line" smooth="yes"/>
			<point x="162" y="382"/>
			<point x="162" y="486"/>
			<point x="164" y="556" type="curve"/>
			<point x="136" y="556" type="line"/>
			<point x="138" y="486"/>
			<point x="138" y="382"/>
			<point x="138" y="297" type="curve" smooth="yes"/>
			<point x="138" y="266" type="line" smooth="yes"/>
			<point x="138" y="177"/>
			<point x="138" y="71"/>
		</contour>
		<contour>
			<point x="56" y="547" type="line"/>
			<point x="143" y="541" type="line"/>
			<point x="154" y="541" type="line"/>
			<point x="242" y="547" type="line"/>
			<point x="242" y="556" type="line"/>
			<point x="56" y="556" type="line"/>
		</contour>
		<contour>
			<point x="150" y="0" type="line"/>
			<point x="431" y="0" type="line"/>
			<point x="440" y="144" type="line"/>
			<point x="431" y="144" type="line"/>
			<point x="409" y="13" type="line"/>
			<point x="150" y="13" type="line"/>
		</contour>
		<contour>
			<point x="56" y="0" type="line"/>
			<point x="149" y="0" type="line"/>
			<point x="149" y="15" type="line"/>
			<point x="143" y="15" type="line"/>
			<point x="56" y="9" type="line"/>
		</contour>
	</outline>
	<anchor name="aboveUC" x="150" y="576"/>
	<anchor name="belowLC" x="270" y="-20"/>
</glyph>
<glyph name="M.sc" format="2">
	<advance width="756"/>
	<outline>
		<contour>
			<point x="56" y="0" type="line"/>
			<point x="234" y="0" type="line"/>
			<point x="234" y="9" type="line"/>
			<point x="147" y="15" type="line"/>
			<point x="143" y="15" type="line"/>
			<point x="56" y="9" type="line"/>
		</contour>
		<contour>
			<point x="56" y="547" type="line"/>
			<point x="144" y="541" type="line"/>
			<point x="149" y="541" type="line"/>
			<point x="149" y="556" type="line"/>
			<point x="56" y="556" type="line"/>
		</contour>
		<contour>
			<point x="138" y="0" type="line"/>
			<point x="152" y="0" type="line"/>
			<point x="152" y="302" type="line"/>
			<point x="152" y="548" type="line"/>
			<point x="138" y="548" type="line"/>
		</contour>
		<contour>
			<point x="369" y="0" type="line"/>
			<point x="376" y="0" type="line"/>
			<point x="594" y="534" type="line"/>
			<point x="603" y="534" type="line"/>
			<point x="603" y="556" type="line"/>
			<point x="588" y="556" type="line"/>
			<point x="376" y="37" type="line"/>
			<point x="380" y="37" type="line"/>
			<point x="170" y="556" type="line"/>
			<point x="144" y="556" type="line"/>
			<point x="144" y="538" type="line"/>
			<point x="151" y="538" type="line"/>
		</contour>
		<contour>
			<point x="512" y="0" type="line"/>
			<point x="700" y="0" type="line"/>
			<point x="700" y="9" type="line"/>
			<point x="612" y="15" type="line"/>
			<point x="599" y="15" type="line"/>
			<point x="512" y="9" type="line"/>
		</contour>
		<contour>
			<point x="593" y="0" type="curve"/>
			<point x="619" y="0" type="line"/>
			<point x="617" y="71"/>
			<point x="617" y="177"/>
			<point x="617" y="266" type="curve" smooth="yes"/>
			<point x="617" y="297" type="line" smooth="yes"/>
			<point x="617" y="382"/>
			<point x="617" y="486"/>
			<point x="619" y="556" type="curve"/>
			<point x="593" y="556" type="line"/>
			<point x="593" y="266" type="line" smooth="yes"/>
			<point x="593" y="177"/>
			<point x="594" y="71"/>
		</contour>
		<contour>
			<point x="599" y="541" type="line"/>
			<point x="612" y="541" type="line"/>
			<point x="700" y="547" type="line"/>
			<point x="700" y="556" type="line"/>
			<point x="599" y="556" type="line"/>
		</contour>
	</outline>
	<anchor name="aboveUC" x="378" y="576"/>
	<anchor name="belowLC" x="378" y="-20"/>
</glyph>
<glyph name="N.sc" format="2">
	<advance width="636"/>
	<outline>
		<contour>
			<point x="56" y="0" type="line"/>
			<point x="241" y="0" type="line"/>
			<point x="241" y="9" type="line"/>
			<point x="147" y="15" type="line"/>
			<point x="143" y="15" type="line"/>
			<point x="56" y="9" type="line"/>
		</contour>
		<contour>
			<point x="138" y="0" type="line"/>
			<point x="152" y="0" type="line"/>
			<point x="152" y="548" type="line"/>
			<point x="138" y="548" type="line"/>
		</contour>
		<contour>
			<point x="401" y="547" type="line"/>
			<point x="495" y="541" type="line"/>
			<point x="499" y="541" type="line"/>
			<point x="580" y="547" type="line"/>
			<point x="580" y="556" type="line"/>
			<point x="401" y="556" type="line"/>
		</contour>
		<contour>
			<point x="491" y="-6" type="line"/>
			<point x="504" y="-6" type="line"/>
			<point x="504" y="556" type="line"/>
			<point x="490" y="556" type="line"/>
			<point x="490" y="33" type="line"/>
			<point x="494" y="33" type="line"/>
			<point x="151" y="556" type="line"/>
			<point x="56" y="556" type="line"/>
			<point x="56" y="547" type="line"/>
			<point x="132" y="542" type="line"/>
			<point x="150" y="514" type="line"/>
			<point x="151" y="513" type="line"/>
		</contour>
	</outline>
	<anchor name="aboveUC" x="318" y="576"/>
	<anchor name="belowLC" x="318" y="-20"/>
</glyph>
<glyph name="P.sc" format="2">
	<advance width="483"/>
	<outline>
		<contour>
			<point x="149" y="243" type="line"/>
			<point x="221" y="243" type="line" smooth="yes"/>
			<point x="375" y="243"/>
			<point x="435" y="318"/>
			<point x="435" y="403" type="curve" smooth="yes"/>
			<point x="435" y="493"/>
			<point x="368" y="556"/>
			<point x="241" y="556" type="curve" smooth="yes"/>
			<point x="149" y="556" type="line"/>
			<point x="149" y="543" type="line"/>
			<point x="230" y="543" type="line" smooth="yes"/>
			<point x="357" y="543"/>
			<point x="410" y="490"/>
			<point x="410" y="403" type="curve" smooth="yes"/>
			<point x="410" y="320"/>
			<point x="364" y="256"/>
			<point x="207" y="256" type="curve" smooth="yes"/>
			<point x="149" y="256" type="line"/>
		</contour>
		<contour>
			<point x="135" y="0" type="curve"/>
			<point x="163" y="0" type="line"/>
			<point x="161" y="71"/>
			<point x="161" y="177"/>
			<point x="161" y="266" type="curve" smooth="yes"/>
			<point x="161" y="297" type="line" smooth="yes"/>
			<point x="161" y="382"/>
			<point x="161" y="486"/>
			<point x="163" y="556" type="curve"/>
			<point x="135" y="556" type="line"/>
			<point x="137" y="486"/>
			<point x="137" y="382"/>
			<point x="137" y="297" type="curve" smooth="yes"/>
			<point x="137" y="266" type="line" smooth="yes"/>
			<point x="137" y="177"/>
			<point x="137" y="71"/>
		</contour>
		<contour>
			<point x="56" y="0" type="line"/>
			<point x="254" y="0" type="line"/>
			<point x="254" y="9" type="line"/>
			<point x="156" y="15" type="line"/>
			<point x="143" y="15" type="line"/>
			<point x="56" y="9" type="line"/>
		</contour>
		<contour>
			<point x="56" y="547" type="line"/>
			<point x="143" y="541" type="line"/>
			<point x="149" y="541" type="line"/>
			<point x="149" y="556" type="line"/>
			<point x="56" y="556" type="line"/>
		</contour>
	</outline>
	<anchor name="aboveUC" x="252" y="576"/>
	<anchor name="belowLC" x="150" y="-20"/>
</glyph>
<glyph name="Pe.sc" format="2">
	<advance width="639"/>
	<outline>
		<contour>
			<point x="135" y="0" type="curve"/>
			<point x="163" y="0" type="line"/>
			<point x="161" y="71"/>
			<point x="161" y="177"/>
			<point x="161" y="266" type="curve" smooth="yes"/>
			<point x="161" y="297" type="line" smooth="yes"/>
			<point x="161" y="382"/>
			<point x="161" y="486"/>
			<point x="163" y="556" type="curve"/>
			<point x="135" y="556" type="line"/>
			<point x="137" y="486"/>
			<point x="137" y="382"/>
			<point x="137" y="297" type="curve" smooth="yes"/>
			<point x="137" y="266" type="line" smooth="yes"/>
			<point x="137" y="177"/>
			<point x="137" y="71"/>
		</contour>
		<contour>
			<point x="475" y="0" type="curve"/>
			<point x="503" y="0" type="line"/>
			<point x="501" y="71"/>
			<point x="501" y="177"/>
			<point x="501" y="266" type="curve" smooth="yes"/>
			<point x="501" y="297" type="line" smooth="yes"/>
			<point x="501" y="382"/>
			<point x="501" y="486"/>
			<point x="503" y="556" type="curve"/>
			<point x="475" y="556" type="line"/>
			<point x="477" y="486"/>
			<point x="477" y="382"/>
			<point x="477" y="297" type="curve" smooth="yes"/>
			<point x="477" y="266" type="line" smooth="yes"/>
			<point x="477" y="177"/>
			<point x="477" y="71"/>
		</contour>
		<contour>
			<point x="56" y="0" type="line"/>
			<point x="244" y="0" type="line"/>
			<point x="244" y="9" type="line"/>
			<point x="156" y="15" type="line"/>
			<point x="143" y="15" type="line"/>
			<point x="56" y="9" type="line"/>
		</contour>
		<contour>
			<point x="394" y="0" type="line"/>
			<point x="583" y="0" type="line"/>
			<point x="583" y="9" type="line"/>
			<point x="495" y="15" type="line"/>
			<point x="483" y="15" type="line"/>
			<point x="394" y="9" type="line"/>
		</contour>
		<contour>
			<point x="56" y="547" type="line"/>
			<point x="143" y="541" type="line"/>
			<point x="156" y="541" type="line"/>
			<point x="154" y="556" type="line"/>
			<point x="56" y="556" type="line"/>
		</contour>
		<contour>
			<point x="483" y="541" type="line"/>
			<point x="495" y="541" type="line"/>
			<point x="583" y="547" type="line"/>
			<point x="583" y="556" type="line"/>
			<point x="482" y="556" type="line"/>
		</contour>
		<contour>
			<point x="149" y="543" type="line"/>
			<point x="490" y="543" type="line"/>
			<point x="490" y="556" type="line"/>
			<point x="149" y="556" type="line"/>
		</contour>
	</outline>
</glyph>
<glyph name="R.sc" format="2">
	<advance width="554"/>
	<outline>
		<contour>
			<point x="486" y="-2" type="curve" smooth="yes"/>
			<point x="509" y="-2"/>
			<point x="526" y="-1"/>
			<point x="534" y="0" type="curve"/>
			<point x="534" y="9" type="line"/>
			<point x="445" y="15" type="line"/>
			<point x="460" y="8" type="line"/>
			<point x="365" y="182" type="line" smooth="yes"/>
			<point x="331" y="244"/>
			<point x="295" y="268"/>
			<point x="225" y="268" type="curve"/>
			<point x="261" y="263" type="line"/>
			<point x="364" y="263"/>
			<point x="433" y="328"/>
			<point x="433" y="412" type="curve" smooth="yes"/>
			<point x="433" y="506"/>
			<point x="369" y="556"/>
			<point x="254" y="556" type="curve" smooth="yes"/>
			<point x="149" y="556" type="line"/>
			<point x="149" y="543" type="line"/>
			<point x="252" y="543" type="line" smooth="yes"/>
			<point x="360" y="543"/>
			<point x="408" y="491"/>
			<point x="408" y="413" type="curve" smooth="yes"/>
			<point x="408" y="335"/>
			<point x="345" y="274"/>
			<point x="260" y="274" type="curve" smooth="yes"/>
			<point x="149" y="274" type="line"/>
			<point x="149" y="261" type="line"/>
			<point x="206" y="261" type="line" smooth="yes"/>
			<point x="281" y="261"/>
			<point x="312" y="235"/>
			<point x="343" y="177" type="curve" smooth="yes"/>
			<point x="421" y="28" type="line" smooth="yes"/>
			<point x="434" y="3"/>
			<point x="446" y="-2"/>
		</contour>
		<contour>
			<point x="135" y="0" type="curve"/>
			<point x="163" y="0" type="line"/>
			<point x="161" y="71"/>
			<point x="161" y="177"/>
			<point x="161" y="266" type="curve" smooth="yes"/>
			<point x="161" y="297" type="line" smooth="yes"/>
			<point x="161" y="382"/>
			<point x="161" y="486"/>
			<point x="163" y="556" type="curve"/>
			<point x="135" y="556" type="line"/>
			<point x="137" y="486"/>
			<point x="137" y="382"/>
			<point x="137" y="297" type="curve" smooth="yes"/>
			<point x="137" y="266" type="line" smooth="yes"/>
			<point x="137" y="177"/>
			<point x="137" y="71"/>
		</contour>
		<contour>
			<point x="56" y="0" type="line"/>
			<point x="244" y="0" type="line"/>
			<point x="244" y="9" type="line"/>
			<point x="156" y="15" type="line"/>
			<point x="143" y="15" type="line"/>
			<point x="56" y="9" type="line"/>
		</contour>
		<contour>
			<point x="56" y="547" type="line"/>
			<point x="143" y="541" type="line"/>
			<point x="149" y="541" type="line"/>
			<point x="149" y="556" type="line"/>
			<point x="56" y="556" type="line"/>
		</contour>
	</outline>
	<anchor name="aboveUC" x="258" y="576"/>
	<anchor name="belowLC" x="300" y="-20"/>
</glyph>
<glyph name="S.sc" format="2">
	<advance width="457"/>
	<outline>
		<contour>
			<point x="216" y="-10" type="curve" smooth="yes"/>
			<point x="320" y="-10"/>
			<point x="391" y="46"/>
			<point x="391" y="138" type="curve" smooth="yes"/>
			<point x="391" y="230"/>
			<point x="317" y="262"/>
			<point x="243" y="292" type="curve" smooth="yes"/>
			<point x="213" y="304" type="line" smooth="yes"/>
			<point x="149" y="330"/>
			<point x="93" y="361"/>
			<point x="93" y="432" type="curve" smooth="yes"/>
			<point x="93" y="518"/>
			<point x="159" y="555"/>
			<point x="234" y="555" type="curve" smooth="yes"/>
			<point x="287" y="555"/>
			<point x="324" y="543"/>
			<point x="353" y="519" type="curve"/>
			<point x="353" y="527" type="line"/>
			<point x="344" y="532" type="line"/>
			<point x="354" y="410" type="line"/>
			<point x="363" y="410" type="line"/>
			<point x="367" y="527" type="line"/>
			<point x="328" y="552"/>
			<point x="297" y="566"/>
			<point x="234" y="566" type="curve" smooth="yes"/>
			<point x="150" y="566"/>
			<point x="73" y="525"/>
			<point x="73" y="430" type="curve" smooth="yes"/>
			<point x="73" y="345"/>
			<point x="137" y="311"/>
			<point x="206" y="283" type="curve" smooth="yes"/>
			<point x="236" y="271" type="line" smooth="yes"/>
			<point x="306" y="243"/>
			<point x="371" y="212"/>
			<point x="371" y="137" type="curve" smooth="yes"/>
			<point x="371" y="47"/>
			<point x="306" y="1"/>
			<point x="216" y="1" type="curve" smooth="yes"/>
			<point x="157" y="1"/>
			<point x="110" y="19"/>
			<point x="80" y="41" type="curve"/>
			<point x="76" y="37" type="line"/>
			<point x="88" y="28" type="line"/>
			<point x="82" y="152" type="line"/>
			<point x="73" y="152" type="line"/>
			<point x="66" y="34" type="line"/>
			<point x="98" y="11"/>
			<point x="152" y="-10"/>
		</contour>
	</outline>
	<anchor name="aboveUC" x="232" y="576"/>
	<anchor name="baseLC" x="214" y="0"/>
	<anchor name="belowLC" x="229" y="-20"/>
</glyph>
<glyph name="S.sups" format="2">
	<advance width="325"/>
	<outline>
		<contour>
			<point x="152" y="428" type="curve" smooth="yes"/>
			<point x="234" y="428"/>
			<point x="288" y="471"/>
			<point x="288" y="541" type="curve" smooth="yes"/>
			<point x="288" y="610"/>
			<point x="233" y="634"/>
			<point x="176" y="657" type="curve" smooth="yes"/>
			<point x="153" y="667" type="line" smooth="yes"/>
			<point x="105" y="686"/>
			<point x="62" y="709"/>
			<point x="62" y="762" type="curve" smooth="yes"/>
			<point x="62" y="827"/>
			<point x="111" y="854"/>
			<point x="168" y="854" type="curve" smooth="yes"/>
			<point x="204" y="854"/>
			<point x="231" y="847"/>
			<point x="254" y="830" type="curve"/>
			<point x="248" y="838" type="line"/>
			<point x="259" y="745" type="line"/>
			<point x="267" y="745" type="line"/>
			<point x="270" y="833" type="line"/>
			<point x="241" y="853"/>
			<point x="215" y="863"/>
			<point x="168" y="863" type="curve" smooth="yes"/>
			<point x="101" y="863"/>
			<point x="42" y="831"/>
			<point x="42" y="759" type="curve" smooth="yes"/>
			<point x="42" y="694"/>
			<point x="92" y="669"/>
			<point x="145" y="647" type="curve" smooth="yes"/>
			<point x="169" y="638" type="line" smooth="yes"/>
			<point x="220" y="617"/>
			<point x="268" y="595"/>
			<point x="268" y="539" type="curve" smooth="yes"/>
			<point x="268" y="471"/>
			<point x="220" y="437"/>
			<point x="152" y="437" type="curve" smooth="yes"/>
			<point x="110" y="437"/>
			<point x="79" y="448"/>
			<point x="54" y="463" type="curve"/>
			<point x="58" y="456" type="line"/>
			<point x="49" y="551" type="line"/>
			<point x="42" y="551" type="line"/>
			<point x="36" y="461" type="line"/>
			<point x="61" y="444"/>
			<point x="103" y="428"/>
		</contour>
	</outline>
</glyph>
<glyph name="Schwa.sc" format="2">
	<advance width="568"/>
	<outline>
		<contour>
			<point x="281" y="-10" type="curve" smooth="yes"/>
			<point x="405" y="-10"/>
			<point x="500" y="94"/>
			<point x="500" y="277" type="curve" smooth="yes"/>
			<point x="500" y="454"/>
			<point x="405" y="553"/>
			<point x="270" y="553" type="curve" smooth="yes"/>
			<point x="206" y="553"/>
			<point x="141" y="523"/>
			<point x="95" y="470" type="curve"/>
			<point x="102" y="464" type="line"/>
			<point x="146" y="509"/>
			<point x="205" y="537"/>
			<point x="270" y="537" type="curve" smooth="yes"/>
			<point x="400" y="537"/>
			<point x="474" y="435"/>
			<point x="474" y="275" type="curve" smooth="yes"/>
			<point x="474" y="110"/>
			<point x="401" y="2"/>
			<point x="281" y="2" type="curve" smooth="yes"/>
			<point x="153" y="2"/>
			<point x="88" y="109"/>
			<point x="88" y="223" type="curve" smooth="yes"/>
			<point x="88" y="241"/>
			<point x="89" y="256"/>
			<point x="91" y="270" type="curve"/>
			<point x="479" y="270" type="line"/>
			<point x="479" y="283" type="line"/>
			<point x="71" y="283" type="line"/>
			<point x="66" y="266"/>
			<point x="64" y="249"/>
			<point x="64" y="224" type="curve" smooth="yes"/>
			<point x="64" y="96"/>
			<point x="136" y="-10"/>
		</contour>
	</outline>
	<anchor name="aboveUC" x="274" y="563"/>
	<anchor name="belowLC" x="284" y="-20"/>
</glyph>
<glyph name="Sha.sc" format="2">
	<advance width="873"/>
	<outline>
		<contour>
			<point x="135" y="0" type="curve"/>
			<point x="163" y="0" type="line"/>
			<point x="161" y="71"/>
			<point x="161" y="177"/>
			<point x="161" y="266" type="curve" smooth="yes"/>
			<point x="161" y="297" type="line" smooth="yes"/>
			<point x="161" y="382"/>
			<point x="161" y="486"/>
			<point x="163" y="556" type="curve"/>
			<point x="135" y="556" type="line"/>
			<point x="137" y="486"/>
			<point x="137" y="382"/>
			<point x="137" y="297" type="curve" smooth="yes"/>
			<point x="137" y="266" type="line" smooth="yes"/>
			<point x="137" y="177"/>
			<point x="137" y="71"/>
		</contour>
		<contour>
			<point x="422" y="0" type="curve"/>
			<point x="450" y="0" type="line"/>
			<point x="448" y="71"/>
			<point x="448" y="177"/>
			<point x="448" y="266" type="curve" smooth="yes"/>
			<point x="448" y="297" type="line" smooth="yes"/>
			<point x="448" y="382"/>
			<point x="448" y="486"/>
			<point x="450" y="556" type="curve"/>
			<point x="422" y="556" type="line"/>
			<point x="424" y="486"/>
			<point x="424" y="382"/>
			<point x="424" y="297" type="curve" smooth="yes"/>
			<point x="424" y="266" type="line" smooth="yes"/>
			<point x="424" y="177"/>
			<point x="424" y="71"/>
		</contour>
		<contour>
			<point x="709" y="0" type="curve"/>
			<point x="737" y="0" type="line"/>
			<point x="735" y="71"/>
			<point x="735" y="177"/>
			<point x="735" y="266" type="curve" smooth="yes"/>
			<point x="735" y="297" type="line" smooth="yes"/>
			<point x="735" y="382"/>
			<point x="735" y="486"/>
			<point x="737" y="556" type="curve"/>
			<point x="709" y="556" type="line"/>
			<point x="711" y="486"/>
			<point x="711" y="382"/>
			<point x="711" y="297" type="curve" smooth="yes"/>
			<point x="711" y="266" type="line" smooth="yes"/>
			<point x="711" y="177"/>
			<point x="711" y="71"/>
		</contour>
		<contour>
			<point x="56" y="547" type="line"/>
			<point x="143" y="541" type="line"/>
			<point x="156" y="541" type="line"/>
			<point x="244" y="547" type="line"/>
			<point x="244" y="556" type="line"/>
			<point x="56" y="556" type="line"/>
		</contour>
		<contour>
			<point x="343" y="547" type="line"/>
			<point x="430" y="541" type="line"/>
			<point x="442" y="541" type="line"/>
			<point x="531" y="547" type="line"/>
			<point x="531" y="556" type="line"/>
			<point x="343" y="556" type="line"/>
		</contour>
		<contour>
			<point x="629" y="547" type="line"/>
			<point x="717" y="541" type="line"/>
			<point x="729" y="541" type="line"/>
			<point x="817" y="547" type="line"/>
			<point x="817" y="556" type="line"/>
			<point x="629" y="556" type="line"/>
		</contour>
		<contour>
			<point x="56" y="0" type="line"/>
			<point x="154" y="0" type="line"/>
			<point x="154" y="15" type="line"/>
			<point x="143" y="15" type="line"/>
			<point x="56" y="9" type="line"/>
		</contour>
		<contour>
			<point x="717" y="0" type="line"/>
			<point x="814" y="0" type="line"/>
			<point x="814" y="9" type="line"/>
			<point x="728" y="15" type="line"/>
			<point x="717" y="15" type="line"/>
		</contour>
		<contour>
			<point x="149" y="0" type="line"/>
			<point x="724" y="0" type="line"/>
			<point x="724" y="13" type="line"/>
			<point x="149" y="13" type="line"/>
		</contour>
	</outline>
</glyph>
<glyph name="Soft.sc" format="2">
	<advance width="492"/>
	<outline>
		<contour>
			<point x="149" y="0" type="line"/>
			<point x="229" y="0" type="line" smooth="yes"/>
			<point x="372" y="0"/>
			<point x="444" y="69"/>
			<point x="444" y="163" type="curve" smooth="yes"/>
			<point x="444" y="260"/>
			<point x="381" y="315"/>
			<point x="259" y="315" type="curve" smooth="yes"/>
			<point x="221" y="315"/>
			<point x="186" y="310"/>
			<point x="147" y="303" type="curve"/>
			<point x="147" y="291" type="line"/>
			<point x="185" y="298"/>
			<point x="218" y="301"/>
			<point x="255" y="301" type="curve" smooth="yes"/>
			<point x="367" y="301"/>
			<point x="419" y="256"/>
			<point x="419" y="163" type="curve" smooth="yes"/>
			<point x="419" y="75"/>
			<point x="363" y="13"/>
			<point x="220" y="13" type="curve" smooth="yes"/>
			<point x="149" y="13" type="line"/>
		</contour>
		<contour>
			<point x="135" y="0" type="curve"/>
			<point x="163" y="0" type="line"/>
			<point x="161" y="71"/>
			<point x="161" y="177"/>
			<point x="161" y="266" type="curve" smooth="yes"/>
			<point x="161" y="297" type="line" smooth="yes"/>
			<point x="161" y="382"/>
			<point x="161" y="486"/>
			<point x="163" y="556" type="curve"/>
			<point x="135" y="556" type="line"/>
			<point x="137" y="486"/>
			<point x="137" y="382"/>
			<point x="137" y="297" type="curve" smooth="yes"/>
			<point x="137" y="266" type="line" smooth="yes"/>
			<point x="137" y="177"/>
			<point x="137" y="71"/>
		</contour>
		<contour>
			<point x="56" y="547" type="line"/>
			<point x="143" y="541" type="line"/>
			<point x="156" y="541" type="line"/>
			<point x="243" y="547" type="line"/>
			<point x="243" y="556" type="line"/>
			<point x="56" y="556" type="line"/>
		</contour>
		<contour>
			<point x="56" y="0" type="line"/>
			<point x="149" y="0" type="line"/>
			<point x="149" y="15" type="line"/>
			<point x="143" y="15" type="line"/>
			<point x="56" y="9" type="line"/>
		</contour>
	</outline>
</glyph>
<glyph name="T.sups" format="2">
	<advance width="375"/>
	<outline>
		<contour>
			<point x="105" y="436" type="line"/>
			<point x="269" y="436" type="line"/>
			<point x="269" y="443" type="line"/>
			<point x="193" y="448" type="line"/>
			<point x="181" y="448" type="line"/>
			<point x="105" y="443" type="line"/>
		</contour>
		<contour>
			<point x="175" y="436" type="line"/>
			<point x="199" y="436" type="line"/>
			<point x="199" y="855" type="line"/>
			<point x="175" y="855" type="line"/>
		</contour>
		<contour>
			<point x="17" y="746" type="line"/>
			<point x="24" y="746" type="line"/>
			<point x="47" y="850" type="line"/>
			<point x="35" y="845" type="line"/>
			<point x="341" y="845" type="line"/>
			<point x="329" y="850" type="line"/>
			<point x="351" y="746" type="line"/>
			<point x="359" y="746" type="line"/>
			<point x="351" y="855" type="line"/>
			<point x="24" y="855" type="line"/>
		</contour>
	</outline>
</glyph>
<glyph name="Theta.sc" format="2">
	<advance width="597"/>
	<outline>
		<contour>
			<point x="193" y="194" type="line"/>
			<point x="202" y="194" type="line"/>
			<point x="213" y="272" type="line"/>
			<point x="213" y="280" type="line"/>
			<point x="202" y="358" type="line"/>
			<point x="193" y="358" type="line"/>
		</contour>
		<contour>
			<point x="394" y="194" type="line"/>
			<point x="403" y="194" type="line"/>
			<point x="403" y="358" type="line"/>
			<point x="394" y="358" type="line"/>
			<point x="383" y="280" type="line"/>
			<point x="383" y="272" type="line"/>
		</contour>
		<contour>
			<point x="298" y="-10" type="curve" smooth="yes"/>
			<point x="430" y="-10"/>
			<point x="529" y="99"/>
			<point x="529" y="279" type="curve" smooth="yes"/>
			<point x="529" y="460"/>
			<point x="430" y="566"/>
			<point x="298" y="566" type="curve" smooth="yes"/>
			<point x="167" y="566"/>
			<point x="68" y="457"/>
			<point x="68" y="277" type="curve" smooth="yes"/>
			<point x="68" y="96"/>
			<point x="167" y="-10"/>
		</contour>
		<contour>
			<point x="298" y="2" type="curve" smooth="yes"/>
			<point x="172" y="2"/>
			<point x="94" y="114"/>
			<point x="94" y="277" type="curve" smooth="yes"/>
			<point x="94" y="440"/>
			<point x="172" y="554"/>
			<point x="298" y="554" type="curve" smooth="yes"/>
			<point x="425" y="554"/>
			<point x="503" y="442"/>
			<point x="503" y="279" type="curve" smooth="yes"/>
			<point x="503" y="116"/>
			<point x="425" y="2"/>
		</contour>
		<contour>
			<point x="201" y="266" type="line"/>
			<point x="395" y="266" type="line"/>
			<point x="395" y="286" type="line"/>
			<point x="201" y="286" type="line"/>
		</contour>
	</outline>
</glyph>
<glyph name="Ustraightstroke.sc" format="2">
	<advance width="542"/>
	<outline>
		<contour>
			<point x="409" y="218" type="line"/>
			<point x="409" y="230" type="line"/>
			<point x="137" y="230" type="line"/>
			<point x="137" y="218" type="line"/>
		</contour>
		<component base="Ustraight.sc"/>
	</outline>
	<anchor name="aboveUC" x="276" y="576"/>
</glyph>
<glyph name="V.sc" format="2">
	<advance width="553"/>
	<outline>
		<contour>
			<point x="16" y="547" type="line"/>
			<point x="94" y="541" type="line"/>
			<point x="106" y="541" type="line"/>
			<point x="193" y="547" type="line"/>
			<point x="193" y="556" type="line"/>
			<point x="16" y="556" type="line"/>
		</contour>
		<contour>
			<point x="371" y="547" type="line"/>
			<point x="455" y="541" type="line"/>
			<point x="464" y="541" type="line"/>
			<point x="537" y="547" type="line"/>
			<point x="537" y="556" type="line"/>
			<point x="371" y="556" type="line"/>
		</contour>
		<contour>
			<point x="273" y="-9" type="line"/>
			<point x="280" y="-9" type="line"/>
			<point x="472" y="556" type="line"/>
			<point x="457" y="556" type="line"/>
			<point x="278" y="28" type="line"/>
			<point x="286" y="28" type="line"/>
			<point x="106" y="556" type="line"/>
			<point x="81" y="556" type="line"/>
		</contour>
	</outline>
	<anchor name="aboveUC" x="277" y="576"/>
	<anchor name="belowLC" x="277" y="-20"/>
</glyph>
<glyph name="Xi.sc" format="2">
	<advance width="486"/>
	<outline>
		<contour>
			<point x="54" y="0" type="line"/>
			<point x="432" y="0" type="line"/>
			<point x="442" y="141" type="line"/>
			<point x="433" y="141" type="line"/>
			<point x="409" y="6" type="line"/>
			<point x="419" y="21" type="line"/>
			<point x="67" y="21" type="line"/>
			<point x="77" y="6" type="line"/>
			<point x="53" y="141" type="line"/>
			<point x="44" y="141" type="line"/>
		</contour>
		<contour>
			<point x="51" y="420" type="line"/>
			<point x="60" y="420" type="line"/>
			<point x="84" y="550" type="line"/>
			<point x="74" y="535" type="line"/>
			<point x="412" y="535" type="line"/>
			<point x="402" y="550" type="line"/>
			<point x="426" y="420" type="line"/>
			<point x="435" y="420" type="line"/>
			<point x="425" y="556" type="line"/>
			<point x="61" y="556" type="line"/>
		</contour>
		<contour>
			<point x="131" y="199" type="line"/>
			<point x="140" y="199" type="line"/>
			<point x="151" y="277" type="line"/>
			<point x="151" y="285" type="line"/>
			<point x="140" y="363" type="line"/>
			<point x="131" y="363" type="line"/>
		</contour>
		<contour>
			<point x="346" y="199" type="line"/>
			<point x="354" y="199" type="line"/>
			<point x="354" y="363" type="line"/>
			<point x="346" y="363" type="line"/>
			<point x="334" y="285" type="line"/>
			<point x="334" y="277" type="line"/>
		</contour>
		<contour>
			<point x="140" y="272" type="line"/>
			<point x="346" y="272" type="line"/>
			<point x="346" y="291" type="line"/>
			<point x="140" y="291" type="line"/>
		</contour>
	</outline>
</glyph>
<glyph name="Ya.sc" format="2">
	<advance width="550"/>
	<outline>
		<contour>
			<point x="16" y="0" type="line"/>
			<point x="24" y="-1"/>
			<point x="41" y="-2"/>
			<point x="64" y="-2" type="curve" smooth="yes"/>
			<point x="104" y="-2"/>
			<point x="114" y="4"/>
			<point x="127" y="29" type="curve" smooth="yes"/>
			<point x="204" y="177" type="line" smooth="yes"/>
			<point x="235" y="236"/>
			<point x="256" y="261"/>
			<point x="330" y="261" type="curve" smooth="yes"/>
			<point x="401" y="261" type="line"/>
			<point x="401" y="274" type="line"/>
			<point x="283" y="274" type="line" smooth="yes"/>
			<point x="198" y="274"/>
			<point x="135" y="335"/>
			<point x="135" y="413" type="curve" smooth="yes"/>
			<point x="135" y="491"/>
			<point x="184" y="543"/>
			<point x="291" y="543" type="curve" smooth="yes"/>
			<point x="401" y="543" type="line"/>
			<point x="401" y="556" type="line"/>
			<point x="289" y="556" type="line" smooth="yes"/>
			<point x="174" y="556"/>
			<point x="110" y="505"/>
			<point x="110" y="411" type="curve" smooth="yes"/>
			<point x="110" y="328"/>
			<point x="180" y="267"/>
			<point x="277" y="262" type="curve"/>
			<point x="301" y="270" type="line"/>
			<point x="238" y="263"/>
			<point x="212" y="241"/>
			<point x="183" y="182" type="curve" smooth="yes"/>
			<point x="90" y="8" type="line"/>
			<point x="105" y="15" type="line"/>
			<point x="16" y="9" type="line"/>
		</contour>
		<contour>
			<point x="387" y="0" type="curve"/>
			<point x="415" y="0" type="line"/>
			<point x="413" y="71"/>
			<point x="413" y="177"/>
			<point x="413" y="266" type="curve" smooth="yes"/>
			<point x="413" y="297" type="line" smooth="yes"/>
			<point x="413" y="382"/>
			<point x="413" y="486"/>
			<point x="415" y="556" type="curve"/>
			<point x="387" y="556" type="line"/>
			<point x="389" y="486"/>
			<point x="389" y="382"/>
			<point x="389" y="297" type="curve" smooth="yes"/>
			<point x="389" y="266" type="line" smooth="yes"/>
			<point x="389" y="177"/>
			<point x="389" y="71"/>
		</contour>
		<contour>
			<point x="306" y="0" type="line"/>
			<point x="494" y="0" type="line"/>
			<point x="494" y="9" type="line"/>
			<point x="407" y="15" type="line"/>
			<point x="394" y="15" type="line"/>
			<point x="306" y="9" type="line"/>
		</contour>
		<contour>
			<point x="401" y="541" type="line"/>
			<point x="407" y="541" type="line"/>
			<point x="494" y="547" type="line"/>
			<point x="494" y="556" type="line"/>
			<point x="401" y="556" type="line"/>
		</contour>
	</outline>
	<anchor name="aboveUC" x="290" y="576"/>
</glyph>
<glyph name="Yeru.sc" format="2">
	<advance width="693"/>
	<outline>
		<contour>
			<point x="149" y="0" type="line"/>
			<point x="218" y="0" type="line" smooth="yes"/>
			<point x="355" y="0"/>
			<point x="423" y="69"/>
			<point x="423" y="163" type="curve" smooth="yes"/>
			<point x="423" y="260"/>
			<point x="364" y="315"/>
			<point x="248" y="315" type="curve" smooth="yes"/>
			<point x="210" y="315"/>
			<point x="186" y="310"/>
			<point x="147" y="303" type="curve"/>
			<point x="147" y="291" type="line"/>
			<point x="185" y="298"/>
			<point x="207" y="301"/>
			<point x="245" y="301" type="curve" smooth="yes"/>
			<point x="349" y="301"/>
			<point x="398" y="256"/>
			<point x="398" y="163" type="curve" smooth="yes"/>
			<point x="398" y="75"/>
			<point x="345" y="13"/>
			<point x="210" y="13" type="curve" smooth="yes"/>
			<point x="149" y="13" type="line"/>
		</contour>
		<contour>
			<point x="135" y="0" type="curve"/>
			<point x="163" y="0" type="line"/>
			<point x="161" y="71"/>
			<point x="161" y="177"/>
			<point x="161" y="266" type="curve" smooth="yes"/>
			<point x="161" y="297" type="line" smooth="yes"/>
			<point x="161" y="382"/>
			<point x="161" y="486"/>
			<point x="163" y="556" type="curve"/>
			<point x="135" y="556" type="line"/>
			<point x="137" y="486"/>
			<point x="137" y="382"/>
			<point x="137" y="297" type="curve" smooth="yes"/>
			<point x="137" y="266" type="line" smooth="yes"/>
			<point x="137" y="177"/>
			<point x="137" y="71"/>
		</contour>
		<contour>
			<point x="530" y="0" type="curve"/>
			<point x="558" y="0" type="line"/>
			<point x="556" y="71"/>
			<point x="556" y="177"/>
			<point x="556" y="266" type="curve" smooth="yes"/>
			<point x="556" y="297" type="line" smooth="yes"/>
			<point x="556" y="382"/>
			<point x="556" y="486"/>
			<point x="558" y="556" type="curve"/>
			<point x="530" y="556" type="line"/>
			<point x="532" y="486"/>
			<point x="532" y="382"/>
			<point x="532" y="297" type="curve" smooth="yes"/>
			<point x="532" y="266" type="line" smooth="yes"/>
			<point x="532" y="177"/>
			<point x="532" y="71"/>
		</contour>
		<contour>
			<point x="56" y="547" type="line"/>
			<point x="143" y="541" type="line"/>
			<point x="156" y="541" type="line"/>
			<point x="243" y="547" type="line"/>
			<point x="243" y="556" type="line"/>
			<point x="56" y="556" type="line"/>
		</contour>
		<contour>
			<point x="450" y="0" type="line"/>
			<point x="637" y="0" type="line"/>
			<point x="637" y="9" type="line"/>
			<point x="550" y="15" type="line"/>
			<point x="537" y="15" type="line"/>
			<point x="450" y="9" type="line"/>
		</contour>
		<contour>
			<point x="450" y="547" type="line"/>
			<point x="537" y="541" type="line"/>
			<point x="550" y="541" type="line"/>
			<point x="637" y="547" type="line"/>
			<point x="637" y="556" type="line"/>
			<point x="450" y="556" type="line"/>
		</contour>
		<contour>
			<point x="56" y="0" type="line"/>
			<point x="149" y="0" type="line"/>
			<point x="149" y="15" type="line"/>
			<point x="143" y="15" type="line"/>
			<point x="56" y="9" type="line"/>
		</contour>
	</outline>
	<anchor name="aboveUC" x="347" y="576"/>
</glyph>
<glyph name="Ze.sc" format="2">
	<advance width="444"/>
	<outline>
		<contour>
			<point x="208" y="-11" type="curve" smooth="yes"/>
			<point x="326" y="-11"/>
			<point x="394" y="56"/>
			<point x="394" y="143" type="curve" smooth="yes"/>
			<point x="394" y="225"/>
			<point x="342" y="291"/>
			<point x="210" y="294" type="curve"/>
			<point x="210" y="288" type="line"/>
			<point x="318" y="298"/>
			<point x="372" y="359"/>
			<point x="372" y="432" type="curve" smooth="yes"/>
			<point x="372" y="524"/>
			<point x="298" y="566"/>
			<point x="215" y="566" type="curve" smooth="yes"/>
			<point x="160" y="566"/>
			<point x="114" y="555"/>
			<point x="72" y="530" type="curve"/>
			<point x="68" y="418" type="line"/>
			<point x="77" y="418" type="line"/>
			<point x="94" y="535" type="line"/>
			<point x="88" y="528" type="line"/>
			<point x="88" y="523" type="line"/>
			<point x="128" y="547"/>
			<point x="161" y="554"/>
			<point x="215" y="554" type="curve" smooth="yes"/>
			<point x="297" y="554"/>
			<point x="348" y="513"/>
			<point x="348" y="432" type="curve" smooth="yes"/>
			<point x="348" y="352"/>
			<point x="289" y="296"/>
			<point x="177" y="296" type="curve" smooth="yes"/>
			<point x="163" y="296" type="line"/>
			<point x="163" y="283" type="line"/>
			<point x="188" y="283" type="line" smooth="yes"/>
			<point x="319" y="283"/>
			<point x="369" y="222"/>
			<point x="369" y="143" type="curve" smooth="yes"/>
			<point x="369" y="56"/>
			<point x="304" y="2"/>
			<point x="208" y="2" type="curve" smooth="yes"/>
			<point x="154" y="2"/>
			<point x="120" y="12"/>
			<point x="85" y="46" type="curve"/>
			<point x="103" y="20" type="line"/>
			<point x="85" y="90" type="line" smooth="yes"/>
			<point x="81" y="106"/>
			<point x="74" y="111"/>
			<point x="66" y="111" type="curve" smooth="yes"/>
			<point x="55" y="111"/>
			<point x="49" y="104"/>
			<point x="48" y="93" type="curve"/>
			<point x="68" y="26"/>
			<point x="125" y="-11"/>
		</contour>
	</outline>
</glyph>
<glyph name="Zhe.sc" format="2">
	<advance width="787"/>
	<outline>
		<contour>
			<point x="300" y="0" type="line"/>
			<point x="488" y="0" type="line"/>
			<point x="488" y="9" type="line"/>
			<point x="400" y="15" type="line"/>
			<point x="387" y="15" type="line"/>
			<point x="300" y="9" type="line"/>
		</contour>
		<contour>
			<point x="300" y="534" type="line"/>
			<point x="387" y="528" type="line"/>
			<point x="400" y="528" type="line"/>
			<point x="488" y="534" type="line"/>
			<point x="488" y="543" type="line"/>
			<point x="300" y="543" type="line"/>
		</contour>
		<contour>
			<point x="380" y="0" type="curve"/>
			<point x="407" y="0" type="line"/>
			<point x="405" y="71"/>
			<point x="405" y="171"/>
			<point x="405" y="260" type="curve" smooth="yes"/>
			<point x="405" y="291" type="line" smooth="yes"/>
			<point x="405" y="376"/>
			<point x="405" y="473"/>
			<point x="407" y="543" type="curve"/>
			<point x="380" y="543" type="line"/>
			<point x="382" y="473"/>
			<point x="382" y="376"/>
			<point x="382" y="291" type="curve" smooth="yes"/>
			<point x="382" y="260" type="line" smooth="yes"/>
			<point x="382" y="171"/>
			<point x="382" y="71"/>
		</contour>
		<contour>
			<point x="658" y="29" type="line" smooth="yes"/>
			<point x="671" y="4"/>
			<point x="683" y="-2"/>
			<point x="723" y="-2" type="curve" smooth="yes"/>
			<point x="746" y="-2"/>
			<point x="763" y="-1"/>
			<point x="771" y="0" type="curve"/>
			<point x="771" y="9" type="line"/>
			<point x="682" y="15" type="line"/>
			<point x="697" y="8" type="line"/>
			<point x="592" y="195" type="line" smooth="yes"/>
			<point x="563" y="253"/>
			<point x="537" y="276"/>
			<point x="474" y="283" type="curve"/>
			<point x="455" y="276" type="line"/>
			<point x="521" y="280"/>
			<point x="545" y="290"/>
			<point x="599" y="405" type="curve" smooth="yes"/>
			<point x="623" y="461"/>
			<point x="641" y="496"/>
			<point x="675" y="533" type="curve"/>
			<point x="655" y="519" type="line"/>
			<point x="665" y="513"/>
			<point x="688" y="505"/>
			<point x="706" y="505" type="curve" smooth="yes"/>
			<point x="723" y="505"/>
			<point x="737" y="512"/>
			<point x="737" y="529" type="curve" smooth="yes"/>
			<point x="737" y="543"/>
			<point x="726" y="551"/>
			<point x="713" y="554" type="curve"/>
			<point x="659" y="554"/>
			<point x="639" y="526"/>
			<point x="586" y="411" type="curve" smooth="yes"/>
			<point x="530" y="298"/>
			<point x="514" y="287"/>
			<point x="450" y="287" type="curve" smooth="yes"/>
			<point x="384" y="287" type="line"/>
			<point x="384" y="274" type="line"/>
			<point x="445" y="274" type="line" smooth="yes"/>
			<point x="519" y="274"/>
			<point x="539" y="249"/>
			<point x="570" y="190" type="curve" smooth="yes"/>
		</contour>
		<contour>
			<point x="129" y="29" type="curve" smooth="yes"/>
			<point x="217" y="190" type="line" smooth="yes"/>
			<point x="248" y="249"/>
			<point x="268" y="274"/>
			<point x="342" y="274" type="curve" smooth="yes"/>
			<point x="403" y="274" type="line"/>
			<point x="403" y="287" type="line"/>
			<point x="337" y="287" type="line" smooth="yes"/>
			<point x="273" y="287"/>
			<point x="257" y="298"/>
			<point x="201" y="411" type="curve" smooth="yes"/>
			<point x="148" y="526"/>
			<point x="128" y="554"/>
			<point x="74" y="554" type="curve"/>
			<point x="61" y="551"/>
			<point x="50" y="543"/>
			<point x="50" y="529" type="curve" smooth="yes"/>
			<point x="50" y="512"/>
			<point x="64" y="505"/>
			<point x="81" y="505" type="curve" smooth="yes"/>
			<point x="99" y="505"/>
			<point x="122" y="513"/>
			<point x="132" y="519" type="curve"/>
			<point x="112" y="533" type="line"/>
			<point x="146" y="496"/>
			<point x="163" y="461"/>
			<point x="188" y="405" type="curve" smooth="yes"/>
			<point x="242" y="290"/>
			<point x="266" y="280"/>
			<point x="332" y="276" type="curve"/>
			<point x="313" y="283" type="line"/>
			<point x="250" y="276"/>
			<point x="224" y="253"/>
			<point x="195" y="195" type="curve" smooth="yes"/>
			<point x="90" y="8" type="line"/>
			<point x="105" y="15" type="line"/>
			<point x="16" y="9" type="line"/>
			<point x="16" y="0" type="line"/>
			<point x="24" y="-1"/>
			<point x="41" y="-2"/>
			<point x="64" y="-2" type="curve" smooth="yes"/>
			<point x="104" y="-2"/>
			<point x="116" y="4"/>
		</contour>
	</outline>
	<anchor name="aboveUC" x="394" y="563"/>
</glyph>
<glyph name="acutecmb.cap" format="2">
	<outline>
		<contour>
			<point x="-41" y="741" type="curve"/>
			<point x="-35" y="733" type="line"/>
			<point x="2" y="757"/>
			<point x="38" y="781"/>
			<point x="75" y="805" type="curve" smooth="yes"/>
			<point x="111" y="828"/>
			<point x="120" y="834"/>
			<point x="120" y="843" type="curve" smooth="yes"/>
			<point x="120" y="851"/>
			<point x="115" y="855"/>
			<point x="107" y="855" type="curve" smooth="yes"/>
			<point x="98" y="855"/>
			<point x="89" y="847"/>
			<point x="61" y="824" type="curve" smooth="yes"/>
			<point x="27" y="796"/>
			<point x="-7" y="769"/>
		</contour>
	</outline>
	<anchor name="_aboveUC" x="0" y="696"/>
	<anchor name="aboveUC" x="0" y="855"/>
</glyph>
<glyph name="ampersand.sc" format="2">
	<advance width="610"/>
	<outline>
		<contour>
			<point x="224" y="-10" type="curve" smooth="yes"/>
			<point x="310" y="-10"/>
			<point x="365" y="33"/>
			<point x="409" y="87" type="curve"/>
			<point x="404" y="91" type="line"/>
			<point x="399" y="94" type="line"/>
			<point x="350" y="37"/>
			<point x="297" y="10"/>
			<point x="225" y="10" type="curve" smooth="yes"/>
			<point x="137" y="10"/>
			<point x="80" y="80"/>
			<point x="80" y="145" type="curve" smooth="yes"/>
			<point x="80" y="210"/>
			<point x="113" y="263"/>
			<point x="207" y="314" type="curve"/>
			<point x="203" y="318" type="line"/>
			<point x="199" y="321" type="line"/>
			<point x="99" y="269"/>
			<point x="56" y="215"/>
			<point x="56" y="141" type="curve" smooth="yes"/>
			<point x="56" y="57"/>
			<point x="122" y="-10"/>
		</contour>
		<contour>
			<point x="412" y="88" type="line"/>
			<point x="474" y="169"/>
			<point x="488" y="234"/>
			<point x="504" y="343" type="curve"/>
			<point x="485" y="343" type="line"/>
			<point x="473" y="236"/>
			<point x="460" y="177"/>
			<point x="405" y="99" type="curve"/>
			<point x="409" y="93" type="line"/>
		</contour>
		<contour>
			<point x="412" y="337" type="line"/>
			<point x="489" y="331" type="line"/>
			<point x="500" y="331" type="line"/>
			<point x="563" y="337" type="line"/>
			<point x="563" y="346" type="line"/>
			<point x="412" y="346" type="line"/>
		</contour>
		<contour>
			<point x="523" y="-4" type="curve" smooth="yes"/>
			<point x="539" y="-4"/>
			<point x="554" y="-3"/>
			<point x="566" y="0" type="curve"/>
			<point x="566" y="9" type="line"/>
			<point x="472" y="15" type="line"/>
			<point x="498" y="7" type="line"/>
			<point x="400" y="111"/>
			<point x="343" y="173"/>
			<point x="288" y="235" type="curve" smooth="yes"/>
			<point x="253" y="275"/>
			<point x="218" y="314"/>
			<point x="183" y="354" type="curve" smooth="yes"/>
			<point x="145" y="397"/>
			<point x="137" y="425"/>
			<point x="137" y="458" type="curve" smooth="yes"/>
			<point x="137" y="517"/>
			<point x="180" y="554"/>
			<point x="231" y="554" type="curve" smooth="yes"/>
			<point x="284" y="554"/>
			<point x="319" y="515"/>
			<point x="319" y="461" type="curve" smooth="yes"/>
			<point x="319" y="405"/>
			<point x="274" y="365"/>
			<point x="203" y="323" type="curve"/>
			<point x="207" y="319" type="line"/>
			<point x="211" y="315" type="line"/>
			<point x="286" y="359"/>
			<point x="340" y="401"/>
			<point x="340" y="461" type="curve" smooth="yes"/>
			<point x="340" y="518"/>
			<point x="303" y="566"/>
			<point x="231" y="566" type="curve" smooth="yes"/>
			<point x="166" y="566"/>
			<point x="116" y="519"/>
			<point x="116" y="456" type="curve" smooth="yes"/>
			<point x="116" y="415"/>
			<point x="132" y="379"/>
			<point x="168" y="338" type="curve" smooth="yes"/>
			<point x="203" y="298"/>
			<point x="238" y="259"/>
			<point x="273" y="219" type="curve" smooth="yes"/>
			<point x="331" y="154"/>
			<point x="386" y="93"/>
			<point x="456" y="18" type="curve" smooth="yes"/>
			<point x="470" y="3"/>
			<point x="491" y="-4"/>
		</contour>
	</outline>
</glyph>
<glyph name="braceleft.sc" format="2">
	<advance width="309"/>
	<outline>
		<contour>
			<point x="44" y="253" type="line"/>
			<point x="98" y="247"/>
			<point x="154" y="232"/>
			<point x="154" y="178" type="curve" smooth="yes"/>
			<point x="154" y="127"/>
			<point x="113" y="72"/>
			<point x="113" y="4" type="curve" smooth="yes"/>
			<point x="113" y="-58"/>
			<point x="144" y="-97"/>
			<point x="242" y="-97" type="curve" smooth="yes"/>
			<point x="273" y="-97" type="line"/>
			<point x="273" y="-88" type="line"/>
			<point x="242" y="-85" type="line" smooth="yes"/>
			<point x="154" y="-79"/>
			<point x="133" y="-54"/>
			<point x="133" y="8" type="curve" smooth="yes"/>
			<point x="133" y="67"/>
			<point x="168" y="123"/>
			<point x="168" y="174" type="curve" smooth="yes"/>
			<point x="168" y="232"/>
			<point x="120" y="255"/>
			<point x="58" y="260" type="curve"/>
			<point x="58" y="256" type="line"/>
			<point x="120" y="261"/>
			<point x="168" y="290"/>
			<point x="168" y="348" type="curve" smooth="yes"/>
			<point x="168" y="399"/>
			<point x="133" y="449"/>
			<point x="133" y="508" type="curve" smooth="yes"/>
			<point x="133" y="569"/>
			<point x="154" y="594"/>
			<point x="242" y="601" type="curve" smooth="yes"/>
			<point x="273" y="603" type="line"/>
			<point x="273" y="612" type="line"/>
			<point x="242" y="612" type="line" smooth="yes"/>
			<point x="144" y="612"/>
			<point x="113" y="574"/>
			<point x="113" y="512" type="curve" smooth="yes"/>
			<point x="113" y="444"/>
			<point x="154" y="396"/>
			<point x="154" y="344" type="curve" smooth="yes"/>
			<point x="154" y="291"/>
			<point x="98" y="269"/>
			<point x="44" y="263" type="curve"/>
		</contour>
	</outline>
</glyph>
<glyph name="bracketleft.sc" format="2">
	<advance width="267"/>
	<outline>
		<contour>
			<point x="111" y="-97" type="line"/>
			<point x="219" y="-97" type="line"/>
			<point x="219" y="-88" type="line"/>
			<point x="120" y="-80" type="line"/>
			<point x="111" y="-80" type="line"/>
		</contour>
		<contour>
			<point x="111" y="609" type="line"/>
			<point x="120" y="609" type="line"/>
			<point x="219" y="616" type="line"/>
			<point x="219" y="625" type="line"/>
			<point x="111" y="625" type="line"/>
		</contour>
		<contour>
			<point x="106" y="169" type="line" smooth="yes"/>
			<point x="106" y="80"/>
			<point x="106" y="-25"/>
			<point x="104" y="-97" type="curve"/>
			<point x="128" y="-97" type="line"/>
			<point x="126" y="-25"/>
			<point x="126" y="80"/>
			<point x="126" y="169" type="curve" smooth="yes"/>
			<point x="126" y="366" type="line" smooth="yes"/>
			<point x="126" y="451"/>
			<point x="126" y="555"/>
			<point x="128" y="625" type="curve"/>
			<point x="104" y="625" type="line"/>
			<point x="106" y="555"/>
			<point x="106" y="451"/>
			<point x="106" y="366" type="curve" smooth="yes"/>
		</contour>
	</outline>
</glyph>
<glyph name="brevecmb.cap" format="2">
	<outline>
		<contour>
			<point x="-131" y="850" type="line"/>
			<point x="-117" y="790"/>
			<point x="-76" y="735"/>
			<point x="0" y="735" type="curve" smooth="yes"/>
			<point x="76" y="735"/>
			<point x="117" y="790"/>
			<point x="131" y="850" type="curve"/>
			<point x="121" y="853" type="line"/>
			<point x="103" y="795"/>
			<point x="63" y="756"/>
			<point x="0" y="756" type="curve" smooth="yes"/>
			<point x="-63" y="756"/>
			<point x="-103" y="795"/>
			<point x="-121" y="853" type="curve"/>
		</contour>
	</outline>
	<anchor name="_aboveUC" x="0" y="696"/>
	<anchor name="aboveUC" x="0" y="853"/>
</glyph>
<glyph name="circumflexhoi" format="2">
	<outline>
		<contour>
			<point x="-108" y="532" type="line"/>
			<point x="2" y="626" type="line"/>
			<point x="-2" y="626" type="line"/>
			<point x="108" y="532" type="line"/>
			<point x="115" y="539" type="line"/>
			<point x="7" y="649" type="line"/>
			<point x="-7" y="649" type="line"/>
			<point x="-115" y="539" type="line"/>
		</contour>
		<contour>
			<point x="96" y="613" type="curve"/>
			<point x="99" y="603" type="line"/>
			<point x="140" y="609"/>
			<point x="177" y="634"/>
			<point x="177" y="681" type="curve" smooth="yes"/>
			<point x="177" y="738"/>
			<point x="116" y="752"/>
			<point x="65" y="757" type="curve"/>
			<point x="62" y="740" type="line"/>
			<point x="99" y="735"/>
			<point x="158" y="730"/>
			<point x="158" y="678" type="curve" smooth="yes"/>
			<point x="158" y="642"/>
			<point x="133" y="622"/>
		</contour>
	</outline>
	<anchor name="_aboveLC" x="0" y="468"/>
</glyph>
<glyph name="eight.sc" format="2">
	<advance width="418"/>
	<outline>
		<contour>
			<point x="209" y="-10" type="curve" smooth="yes"/>
			<point x="315" y="-10"/>
			<point x="370" y="54"/>
			<point x="370" y="131" type="curve" smooth="yes"/>
			<point x="370" y="200"/>
			<point x="328" y="244"/>
			<point x="215" y="292" type="curve" smooth="yes"/>
			<point x="127" y="330"/>
			<point x="92" y="367"/>
			<point x="92" y="424" type="curve" smooth="yes"/>
			<point x="92" y="495"/>
			<point x="143" y="542"/>
			<point x="207" y="542" type="curve" smooth="yes"/>
			<point x="275" y="542"/>
			<point x="322" y="493"/>
			<point x="322" y="423" type="curve" smooth="yes"/>
			<point x="322" y="362"/>
			<point x="290" y="325"/>
			<point x="205" y="287" type="curve"/>
			<point x="213" y="277" type="line"/>
			<point x="213" y="283" type="line"/>
			<point x="309" y="320"/>
			<point x="347" y="369"/>
			<point x="347" y="424" type="curve" smooth="yes"/>
			<point x="347" y="501"/>
			<point x="290" y="553"/>
			<point x="207" y="553" type="curve" smooth="yes"/>
			<point x="128" y="553"/>
			<point x="67" y="499"/>
			<point x="67" y="422" type="curve" smooth="yes"/>
			<point x="67" y="357"/>
			<point x="106" y="316"/>
			<point x="196" y="278" type="curve" smooth="yes"/>
			<point x="305" y="232"/>
			<point x="345" y="188"/>
			<point x="345" y="129" type="curve" smooth="yes"/>
			<point x="345" y="58"/>
			<point x="297" y="2"/>
			<point x="209" y="2" type="curve" smooth="yes"/>
			<point x="117" y="2"/>
			<point x="73" y="58"/>
			<point x="73" y="129" type="curve" smooth="yes"/>
			<point x="73" y="192"/>
			<point x="111" y="234"/>
			<point x="205" y="279" type="curve"/>
			<point x="198" y="289" type="line"/>
			<point x="198" y="284" type="line"/>
			<point x="104" y="241"/>
			<point x="48" y="197"/>
			<point x="48" y="128" type="curve" smooth="yes"/>
			<point x="48" y="51"/>
			<point x="100" y="-10"/>
		</contour>
	</outline>
</glyph>
<glyph name="emdash.sups" format="2">
	<advance width="470"/>
	<outline>
		<contour>
			<point x="22" y="616" type="line"/>
			<point x="448" y="616" type="line"/>
			<point x="448" y="630" type="line"/>
			<point x="22" y="630" type="line"/>
		</contour>
	</outline>
</glyph>
<glyph name="endash.sc" format="2">
	<advance width="470"/>
	<outline>
		<contour>
			<point x="48" y="275" type="line"/>
			<point x="422" y="275" type="line"/>
			<point x="422" y="293" type="line"/>
			<point x="48" y="293" type="line"/>
		</contour>
	</outline>
</glyph>
<glyph name="five.lf" format="2">
	<advance width="456"/>
	<outline>
		<contour>
			<point x="208" y="-12" type="curve" smooth="yes"/>
			<point x="316" y="-12"/>
			<point x="412" y="64"/>
			<point x="412" y="198" type="curve" smooth="yes"/>
			<point x="412" y="322"/>
			<point x="330" y="398"/>
			<point x="216" y="398" type="curve" smooth="yes"/>
			<point x="165" y="398"/>
			<point x="125" y="386"/>
			<point x="86" y="358" type="curve"/>
			<point x="86" y="356" type="line"/>
			<point x="97" y="356" type="line"/>
			<point x="116" y="644" type="line"/>
			<point x="111" y="633" type="line"/>
			<point x="396" y="633" type="line"/>
			<point x="396" y="656" type="line"/>
			<point x="104" y="656" type="line"/>
			<point x="84" y="352" type="line"/>
			<point x="92" y="352" type="line"/>
			<point x="126" y="375"/>
			<point x="164" y="384"/>
			<point x="216" y="384" type="curve" smooth="yes"/>
			<point x="311" y="384"/>
			<point x="385" y="319"/>
			<point x="385" y="198" type="curve" smooth="yes"/>
			<point x="385" y="69"/>
			<point x="314" y="1"/>
			<point x="208" y="1" type="curve" smooth="yes"/>
			<point x="152" y="1"/>
			<point x="113" y="12"/>
			<point x="72" y="58" type="curve"/>
			<point x="94" y="23" type="line"/>
			<point x="73" y="111" type="line" smooth="yes"/>
			<point x="69" y="125"/>
			<point x="60" y="128"/>
			<point x="51" y="128" type="curve" smooth="yes"/>
			<point x="39" y="128"/>
			<point x="33" y="120"/>
			<point x="32" y="108" type="curve"/>
			<point x="55" y="30"/>
			<point x="121" y="-12"/>
		</contour>
	</outline>
</glyph>
<glyph name="gravecmb.cap" format="2">
	<outline>
		<contour>
			<point x="41" y="741" type="line"/>
			<point x="7" y="769"/>
			<point x="-28" y="797"/>
			<point x="-62" y="825" type="curve" smooth="yes"/>
			<point x="-90" y="848"/>
			<point x="-99" y="855"/>
			<point x="-107" y="855" type="curve" smooth="yes"/>
			<point x="-115" y="855"/>
			<point x="-120" y="851"/>
			<point x="-120" y="843" type="curve" smooth="yes"/>
			<point x="-120" y="834"/>
			<point x="-113" y="829"/>
			<point x="-77" y="806" type="curve" smooth="yes"/>
			<point x="-40" y="782"/>
			<point x="-2" y="757"/>
			<point x="35" y="733" type="curve"/>
		</contour>
	</outline>
	<anchor name="_aboveUC" x="0" y="696"/>
	<anchor name="aboveUC" x="0" y="855"/>
</glyph>
<glyph name="hyphen.sc" format="2">
	<advance width="296"/>
	<outline>
		<contour>
			<point x="48" y="275" type="line"/>
			<point x="248" y="275" type="line"/>
			<point x="248" y="293" type="line"/>
			<point x="48" y="293" type="line"/>
		</contour>
	</outline>
</glyph>
<glyph name="nine.sc" format="2">
	<advance width="420"/>
	<outline>
		<contour>
			<point x="78" y="-8" type="line"/>
			<point x="264" y="50"/>
			<point x="368" y="179"/>
			<point x="368" y="338" type="curve" smooth="yes"/>
			<point x="368" y="481"/>
			<point x="302" y="553"/>
			<point x="204" y="553" type="curve" smooth="yes"/>
			<point x="116" y="553"/>
			<point x="44" y="488"/>
			<point x="44" y="384" type="curve" smooth="yes"/>
			<point x="44" y="275"/>
			<point x="114" y="222"/>
			<point x="206" y="222" type="curve" smooth="yes"/>
			<point x="265" y="222"/>
			<point x="321" y="253"/>
			<point x="352" y="303" type="curve"/>
			<point x="358" y="303" type="line"/>
			<point x="349" y="316" type="line"/>
			<point x="320" y="267"/>
			<point x="263" y="236"/>
			<point x="211" y="236" type="curve" smooth="yes"/>
			<point x="129" y="236"/>
			<point x="69" y="284"/>
			<point x="69" y="384" type="curve" smooth="yes"/>
			<point x="69" y="485"/>
			<point x="132" y="542"/>
			<point x="204" y="542" type="curve" smooth="yes"/>
			<point x="285" y="542"/>
			<point x="342" y="471"/>
			<point x="342" y="335" type="curve" smooth="yes"/>
			<point x="342" y="180"/>
			<point x="250" y="65"/>
			<point x="74" y="1" type="curve"/>
		</contour>
	</outline>
</glyph>
<glyph name="one.osf" format="2">
	<advance width="431"/>
	<outline>
		<contour>
			<point x="86" y="0" type="line"/>
			<point x="375" y="0" type="line"/>
			<point x="375" y="10" type="line"/>
			<point x="242" y="18" type="line"/>
			<point x="230" y="18" type="line"/>
			<point x="86" y="10" type="line"/>
		</contour>
		<contour>
			<point x="222" y="0" type="curve"/>
			<point x="250" y="0" type="line"/>
			<point x="248" y="88"/>
			<point x="248" y="128"/>
			<point x="248" y="236" type="curve" smooth="yes"/>
			<point x="248" y="314" type="line"/>
			<point x="250" y="527" type="line"/>
			<point x="244" y="531" type="line"/>
			<point x="76" y="482" type="line"/>
			<point x="76" y="472" type="line"/>
			<point x="224" y="502" type="line"/>
			<point x="224" y="236" type="line" smooth="yes"/>
			<point x="224" y="128"/>
			<point x="224" y="88"/>
		</contour>
	</outline>
</glyph>
<glyph name="one.sc" format="2">
	<advance width="390"/>
	<outline>
		<contour>
			<point x="77" y="0" type="line"/>
			<point x="330" y="0" type="line"/>
			<point x="330" y="9" type="line"/>
			<point x="213" y="17" type="line"/>
			<point x="202" y="17" type="line"/>
			<point x="77" y="9" type="line"/>
		</contour>
		<contour>
			<point x="195" y="0" type="curve"/>
			<point x="221" y="0" type="line"/>
			<point x="219" y="67"/>
			<point x="219" y="124"/>
			<point x="219" y="207" type="curve" smooth="yes"/>
			<point x="219" y="339" type="line"/>
			<point x="221" y="543" type="line"/>
			<point x="215" y="547" type="line"/>
			<point x="68" y="505" type="line"/>
			<point x="68" y="496" type="line"/>
			<point x="197" y="519" type="line"/>
			<point x="197" y="207" type="line" smooth="yes"/>
			<point x="197" y="124"/>
			<point x="197" y="67"/>
		</contour>
	</outline>
</glyph>
<glyph name="period.sups" format="2">
	<advance width="170"/>
	<outline>
		<contour>
			<point x="85" y="431" type="curve" smooth="yes"/>
			<point x="98" y="431"/>
			<point x="109" y="440"/>
			<point x="109" y="455" type="curve" smooth="yes"/>
			<point x="109" y="470"/>
			<point x="98" y="479"/>
			<point x="85" y="479" type="curve" smooth="yes"/>
			<point x="72" y="479"/>
			<point x="61" y="470"/>
			<point x="61" y="455" type="curve" smooth="yes"/>
			<point x="61" y="440"/>
			<point x="72" y="431"/>
		</contour>
	</outline>
</glyph>
<glyph name="three.sc" format="2">
	<advance width="413"/>
	<outline>
		<contour>
			<point x="194" y="-10" type="curve" smooth="yes"/>
			<point x="286" y="-10"/>
			<point x="365" y="47"/>
			<point x="365" y="143" type="curve" smooth="yes"/>
			<point x="365" y="229"/>
			<point x="306" y="286"/>
			<point x="204" y="290" type="curve"/>
			<point x="204" y="287" type="line"/>
			<point x="294" y="298"/>
			<point x="347" y="357"/>
			<point x="347" y="430" type="curve" smooth="yes"/>
			<point x="347" y="509"/>
			<point x="289" y="566"/>
			<point x="201" y="566" type="curve" smooth="yes"/>
			<point x="128" y="566"/>
			<point x="74" y="531"/>
			<point x="54" y="466" type="curve"/>
			<point x="55" y="455"/>
			<point x="59" y="448"/>
			<point x="70" y="448" type="curve" smooth="yes"/>
			<point x="79" y="448"/>
			<point x="86" y="453"/>
			<point x="90" y="467" type="curve" smooth="yes"/>
			<point x="108" y="540" type="line"/>
			<point x="86" y="512" type="line"/>
			<point x="122" y="548"/>
			<point x="155" y="555"/>
			<point x="200" y="555" type="curve" smooth="yes"/>
			<point x="273" y="555"/>
			<point x="323" y="503"/>
			<point x="323" y="429" type="curve" smooth="yes"/>
			<point x="323" y="346"/>
			<point x="257" y="294"/>
			<point x="179" y="294" type="curve" smooth="yes"/>
			<point x="141" y="294" type="line"/>
			<point x="141" y="282" type="line"/>
			<point x="183" y="282" type="line" smooth="yes"/>
			<point x="288" y="282"/>
			<point x="340" y="228"/>
			<point x="340" y="142" type="curve" smooth="yes"/>
			<point x="340" y="60"/>
			<point x="280" y="2"/>
			<point x="193" y="2" type="curve" smooth="yes"/>
			<point x="149" y="2"/>
			<point x="111" y="10"/>
			<point x="76" y="44" type="curve"/>
			<point x="95" y="16" type="line"/>
			<point x="77" y="88" type="line" smooth="yes"/>
			<point x="73" y="104"/>
			<point x="65" y="108"/>
			<point x="57" y="108" type="curve" smooth="yes"/>
			<point x="46" y="108"/>
			<point x="41" y="102"/>
			<point x="40" y="91" type="curve"/>
			<point x="60" y="25"/>
			<point x="121" y="-10"/>
		</contour>
	</outline>
</glyph>
<glyph name="zero.osf" format="2">
	<advance width="508"/>
	<outline>
		<contour>
			<point x="254" y="-12" type="curve" smooth="yes"/>
			<point x="361" y="-12"/>
			<point x="468" y="69"/>
			<point x="468" y="257" type="curve" smooth="yes"/>
			<point x="468" y="446"/>
			<point x="361" y="531"/>
			<point x="254" y="531" type="curve" smooth="yes"/>
			<point x="147" y="531"/>
			<point x="40" y="446"/>
			<point x="40" y="257" type="curve" smooth="yes"/>
			<point x="40" y="69"/>
			<point x="147" y="-12"/>
		</contour>
		<contour>
			<point x="254" y="1" type="curve" smooth="yes"/>
			<point x="167" y="1"/>
			<point x="68" y="70"/>
			<point x="68" y="257" type="curve" smooth="yes"/>
			<point x="68" y="444"/>
			<point x="167" y="518"/>
			<point x="254" y="518" type="curve" smooth="yes"/>
			<point x="341" y="518"/>
			<point x="440" y="444"/>
			<point x="440" y="257" type="curve" smooth="yes"/>
			<point x="440" y="70"/>
			<point x="341" y="1"/>
		</contour>
	</outline>
</glyph>
